<svg width="19" height="28" viewBox="0 0 19 28" fill="none" xmlns="http://www.w3.org/2000/svg">
<path d="M14.6201 17.247H0.242065V27.678H3.12506C3.12286 27.6691 3.12119 27.6601 3.12006 27.651V19.923C3.12435 19.8507 3.15611 19.7828 3.2088 19.7332C3.2615 19.6835 3.33116 19.6558 3.40356 19.6558C3.47597 19.6558 3.54563 19.6835 3.59833 19.7332C3.65102 19.7828 3.68278 19.8507 3.68707 19.923V27.651C3.68707 27.66 3.68707 27.668 3.68207 27.678H7.25006C7.25006 27.669 7.24506 27.661 7.24506 27.651V19.923C7.24506 19.8503 7.27393 19.7806 7.32532 19.7292C7.3767 19.6779 7.44637 19.649 7.51904 19.649C7.59171 19.649 7.66144 19.6779 7.71283 19.7292C7.76421 19.7806 7.79309 19.8503 7.79309 19.923V27.651C7.79309 27.66 7.79309 27.668 7.78809 27.678H11.3561C11.3561 27.669 11.3511 27.661 11.3511 27.651V19.923C11.3511 19.8503 11.38 19.7806 11.4313 19.7292C11.4827 19.6779 11.5524 19.649 11.6251 19.649C11.6977 19.649 11.7674 19.6779 11.8188 19.7292C11.8702 19.7806 11.899 19.8503 11.899 19.923V27.651C11.899 27.66 11.899 27.668 11.894 27.678H15.4611C15.4611 27.669 15.4551 27.661 15.4551 27.651V19.923C15.4551 19.8477 15.485 19.7754 15.5383 19.7222C15.5915 19.6689 15.6638 19.639 15.7391 19.639C15.8144 19.639 15.8866 19.6689 15.9399 19.7222C15.9931 19.7754 16.0231 19.8477 16.0231 19.923V27.651C16.0219 27.6601 16.0202 27.6691 16.0181 27.678H18.7461V17.247H14.6201Z" fill="#C4D8AB"/>
<path d="M18.7441 15.788C18.6974 15.3598 18.4845 14.967 18.1513 14.694C17.8181 14.421 17.3911 14.2896 16.9621 14.328H11.2751V4.978C11.2871 4.89586 11.2934 4.813 11.2941 4.73V2.606C11.2997 2.36717 11.2575 2.12963 11.17 1.90734C11.0825 1.68505 10.9515 1.4825 10.7846 1.31159C10.6177 1.14069 10.4183 1.00488 10.1981 0.912155C9.97796 0.819434 9.74146 0.771667 9.50256 0.771667C9.26367 0.771667 9.02717 0.819434 8.80701 0.912155C8.58684 1.00488 8.3875 1.14069 8.22058 1.31159C8.05367 1.4825 7.92258 1.68505 7.83508 1.90734C7.74759 2.12963 7.70542 2.36717 7.71106 2.606V14.328H2.02405C1.59501 14.2896 1.16804 14.421 0.834839 14.694C0.501634 14.967 0.288793 15.3598 0.242065 15.788C0.242733 15.852 0.248446 15.9159 0.259094 15.979V17.248H18.7441V15.979H18.7271C18.7378 15.9159 18.7435 15.852 18.7441 15.788Z" fill="#599732"/>
</svg>
