<svg width="38" height="22" viewBox="0 0 38 22" fill="none" xmlns="http://www.w3.org/2000/svg">
<path d="M6.25701 16.562L4.93201 15.235L13.904 6.27901H18.911L20.227 7.67902L24.627 12.064L31.865 4.81001L33.193 6.13502L24.63 14.716L18.875 8.97501L18.104 8.15601H14.684L6.25701 16.562Z" fill="#569532"/>
<path d="M16.368 8.95801C18.1889 8.95801 19.665 7.4819 19.665 5.66101C19.665 3.84013 18.1889 2.36401 16.368 2.36401C14.5472 2.36401 13.071 3.84013 13.071 5.66101C13.071 7.4819 14.5472 8.95801 16.368 8.95801Z" fill="#C5DAAC"/>
<path d="M24.623 17.206C26.4439 17.206 27.92 15.7299 27.92 13.909C27.92 12.0881 26.4439 10.612 24.623 10.612C22.8022 10.612 21.326 12.0881 21.326 13.909C21.326 15.7299 22.8022 17.206 24.623 17.206Z" fill="#C5DAAC"/>
<path d="M34.5171 7.31301C36.338 7.31301 37.8141 5.83689 37.8141 4.01601C37.8141 2.19513 36.338 0.719009 34.5171 0.719009C32.6962 0.719009 31.2201 2.19513 31.2201 4.01601C31.2201 5.83689 32.6962 7.31301 34.5171 7.31301Z" fill="#C5DAAC"/>
<path d="M8.02716 17.9633C8.44553 16.1911 7.34806 14.4153 5.57589 13.9969C3.80372 13.5786 2.02794 14.676 1.60957 16.4482C1.1912 18.2204 2.28868 19.9962 4.06085 20.4145C5.83302 20.8329 7.6088 19.7354 8.02716 17.9633Z" fill="#C5DAAC"/>
</svg>
