<svg width="39" height="38" viewBox="0 0 39 38" fill="none" xmlns="http://www.w3.org/2000/svg">
<path d="M32 0H7C3.13401 0 0 3.13401 0 7V31C0 34.866 3.13401 38 7 38H32C35.866 38 39 34.866 39 31V7C39 3.13401 35.866 0 32 0Z" fill="#EEF6E9"/>
<path d="M15 15C15 13.3431 13.6569 12 12 12C10.3431 12 9 13.3431 9 15V27C9 28.6569 10.3431 30 12 30C13.6569 30 15 28.6569 15 27V15Z" fill="#CAE2BC"/>
<path d="M9 18H15V27C15 27.7956 14.6839 28.5587 14.1213 29.1213C13.5587 29.6839 12.7956 30 12 30C11.2044 30 10.4413 29.6839 9.87868 29.1213C9.31607 28.5587 9 27.7956 9 27V18Z" fill="#59A52C"/>
<path d="M23 18C23 16.3431 21.6569 15 20 15C18.3431 15 17 16.3431 17 18V27C17 28.6569 18.3431 30 20 30C21.6569 30 23 28.6569 23 27V18Z" fill="#CAE2BC"/>
<path d="M17 24H23V27C23 27.7956 22.6839 28.5587 22.1213 29.1213C21.5587 29.6839 20.7956 30 20 30C19.2044 30 18.4413 29.6839 17.8787 29.1213C17.3161 28.5587 17 27.7956 17 27V24Z" fill="#59A52C"/>
<path d="M31 11C31 9.34315 29.6569 8 28 8C26.3431 8 25 9.34315 25 11V27C25 28.6569 26.3431 30 28 30C29.6569 30 31 28.6569 31 27V11Z" fill="#CAE2BC"/>
<path d="M25 21H31V27C31 27.7956 30.6839 28.5587 30.1213 29.1213C29.5587 29.6839 28.7956 30 28 30C27.2044 30 26.4413 29.6839 25.8787 29.1213C25.3161 28.5587 25 27.7956 25 27V21Z" fill="#59A52C"/>
</svg>
