<svg width="52" height="44" viewBox="0 0 52 44" fill="none" xmlns="http://www.w3.org/2000/svg">
<path d="M44.5 28.3H7.5C3.35786 28.3 0 31.6579 0 35.8C0 39.9421 3.35786 43.3 7.5 43.3H44.5C48.6421 43.3 52 39.9421 52 35.8C52 31.6579 48.6421 28.3 44.5 28.3Z" fill="#CAE2BC"/>
<path d="M27 41.3L20 28.3H34L27 41.3Z" fill="#59A52C"/>
<path d="M27.5 18.3C32.1944 18.3 36 14.2706 36 9.29999C36 4.32942 32.1944 0.299988 27.5 0.299988C22.8056 0.299988 19 4.32942 19 9.29999C19 14.2706 22.8056 18.3 27.5 18.3Z" fill="#59A52C"/>
</svg>
