<svg width="44" height="44" viewBox="0 0 44 44" fill="none" xmlns="http://www.w3.org/2000/svg">
<path d="M15 0.299988H5C2.23858 0.299988 0 2.53856 0 5.29999V15.3C0 18.0614 2.23858 20.3 5 20.3H15C17.7614 20.3 20 18.0614 20 15.3V5.29999C20 2.53856 17.7614 0.299988 15 0.299988Z" fill="#CAE2BC"/>
<path d="M43 10.3C43 4.77714 38.5228 0.299988 33 0.299988C27.4772 0.299988 23 4.77714 23 10.3C23 15.8228 27.4772 20.3 33 20.3C38.5228 20.3 43 15.8228 43 10.3Z" fill="#59A52C"/>
<path d="M39 23.3H28C25.2386 23.3 23 25.5386 23 28.3V38.3C23 41.0614 25.2386 43.3 28 43.3H39C41.7614 43.3 44 41.0614 44 38.3V28.3C44 25.5386 41.7614 23.3 39 23.3Z" fill="#CAE2BC"/>
<path d="M15 23.3H5C2.23858 23.3 0 25.5386 0 28.3V38.3C0 41.0614 2.23858 43.3 5 43.3H15C17.7614 43.3 20 41.0614 20 38.3V28.3C20 25.5386 17.7614 23.3 15 23.3Z" fill="#CAE2BC"/>
</svg>
