<svg width="22" height="22" viewBox="0 0 22 22" fill="none" xmlns="http://www.w3.org/2000/svg">
<path d="M19.504 9.58297H11.829V1.90797C11.829 1.57048 11.6949 1.24681 11.4563 1.00817C11.2176 0.769534 10.894 0.635468 10.5565 0.635468C10.219 0.635468 9.89533 0.769534 9.65669 1.00817C9.41805 1.24681 9.28399 1.57048 9.28399 1.90797V9.58297H1.60899C1.2715 9.58297 0.947833 9.71703 0.709193 9.95567C0.470553 10.1943 0.336487 10.518 0.336487 10.8555C0.336487 11.193 0.470553 11.5166 0.709193 11.7553C0.947833 11.9939 1.2715 12.128 1.60899 12.128H9.28399V19.803C9.28399 20.1405 9.41805 20.4641 9.65669 20.7028C9.89533 20.9414 10.219 21.0755 10.5565 21.0755C10.894 21.0755 11.2176 20.9414 11.4563 20.7028C11.6949 20.4641 11.829 20.1405 11.829 19.803V12.128H19.504C19.8415 12.128 20.1651 11.9939 20.4038 11.7553C20.6424 11.5166 20.7765 11.193 20.7765 10.8555C20.7765 10.518 20.6424 10.1943 20.4038 9.95567C20.1651 9.71703 19.8415 9.58297 19.504 9.58297Z" fill="white" stroke="white" stroke-width="0.5"/>
</svg>
