<svg width="174" height="64" viewBox="0 0 174 64" fill="none" xmlns="http://www.w3.org/2000/svg">
<path d="M31.522 63.044C48.9311 63.044 63.044 48.9311 63.044 31.522C63.044 14.1129 48.9311 0 31.522 0C14.1129 0 0 14.1129 0 31.522C0 48.9311 14.1129 63.044 31.522 63.044Z" fill="#59A52C"/>
<path d="M47.411 32.13C47.787 35.005 46.927 38.498 44.617 42.421C38.76 52.577 23.983 53.678 14.122 48.412L16.459 38.202H20.194C26.132 45.295 33.01 40.402 33.843 37.315C34.434 35.115 33.091 32.989 30.78 32.13H28.28C26.8075 31.6307 25.2115 31.6307 23.739 32.13H26.211C24.7288 32.6591 23.3684 33.4815 22.211 34.548H18.824L19.361 32.13H16.861L21.643 11.093H49.426L47.196 21.008H32.177L31.505 23.937C39.565 23.937 44.294 27.027 44.938 32.132H47.41L47.411 32.13Z" fill="white"/>
<path d="M80.085 20.852C78.8796 20.8426 77.684 20.6352 76.546 20.238C75.3889 19.8687 74.2945 19.3263 73.3 18.629C73.2255 18.5797 73.1703 18.5063 73.1437 18.421C73.1171 18.3357 73.1207 18.2439 73.154 18.161L74.646 15.178C74.6667 15.1234 74.7023 15.0757 74.7488 15.0403C74.7953 15.005 74.8508 14.9834 74.909 14.978C74.9638 14.965 75.0208 14.9635 75.0762 14.9736C75.1316 14.9838 75.1843 15.0054 75.231 15.037C75.8859 15.6068 76.6258 16.0707 77.424 16.412C78.1355 16.7179 78.9015 16.877 79.676 16.88C80.4011 16.9289 81.119 16.7104 81.694 16.266C81.9257 16.0756 82.1097 15.8337 82.2312 15.5595C82.3528 15.2854 82.4085 14.9866 82.394 14.687C82.4095 14.3638 82.3577 14.0409 82.2419 13.7388C82.126 13.4367 81.9486 13.1619 81.721 12.932C81.0633 12.5309 80.2961 12.3468 79.528 12.406C78.943 12.406 78.651 12.406 77.685 12.435C76.719 12.464 75.985 12.494 75.492 12.552C75.3872 12.5587 75.2836 12.5275 75.2 12.464C75.1568 12.4281 75.1215 12.3836 75.0963 12.3333C75.0712 12.2831 75.0568 12.2281 75.054 12.172V2.57901C75.0558 2.47879 75.0964 2.38318 75.1673 2.31231C75.2381 2.24143 75.3338 2.20082 75.434 2.19903H85.879C85.9792 2.20082 86.0748 2.24143 86.1457 2.31231C86.2166 2.38318 86.2572 2.47879 86.259 2.57901V5.90401C86.2572 6.00423 86.2166 6.09986 86.1457 6.17074C86.0748 6.24161 85.9792 6.28222 85.879 6.28402H79.385V8.39002H80.385C81.6247 8.35955 82.8553 8.60943 83.985 9.12102C84.9722 9.54472 85.8153 10.2457 86.412 11.139C87.0007 12.1183 87.3044 13.2425 87.289 14.385C87.3162 15.5885 87.0017 16.775 86.382 17.807C85.7813 18.787 84.9071 19.5698 83.867 20.059C82.6836 20.6093 81.3897 20.8806 80.085 20.852ZM99.417 20.852C97.7655 20.8728 96.139 20.4486 94.708 19.624C93.3228 18.7977 92.1835 17.6163 91.408 16.202C90.6014 14.7226 90.1882 13.0609 90.208 11.376C90.1909 9.70666 90.6145 8.06234 91.436 6.60901C92.2455 5.21469 93.4047 4.05556 94.799 3.24602C96.0866 2.51651 97.5276 2.09945 99.0058 2.02842C100.484 1.95738 101.958 2.23433 103.31 2.83701C104.5 3.36086 105.574 4.11657 106.469 5.06002C106.526 5.13096 106.557 5.21914 106.557 5.31002C106.557 5.4009 106.526 5.48907 106.469 5.56002L103.691 7.84102C103.655 7.88424 103.611 7.91953 103.56 7.94466C103.51 7.96979 103.455 7.98422 103.399 7.98702C103.342 7.98741 103.286 7.9744 103.235 7.94903C103.185 7.92365 103.141 7.88665 103.107 7.84102C102.42 6.97146 101.43 6.39238 100.336 6.21895C99.2412 6.04553 98.1213 6.29045 97.199 6.90502C96.3918 7.46019 95.7506 8.22414 95.3437 9.11533C94.9369 10.0065 94.7797 10.9915 94.889 11.965C94.9551 12.9563 95.3245 13.9032 95.947 14.6774C96.5695 15.4516 97.4151 16.0156 98.369 16.293C99.1928 16.569 100.079 16.5999 100.92 16.3819C101.761 16.1639 102.521 15.7065 103.107 15.065C103.146 15.0295 103.192 15.0032 103.243 14.988C103.294 14.9727 103.347 14.969 103.399 14.977C103.449 14.9714 103.5 14.9793 103.546 14.9999C103.593 15.0204 103.632 15.0529 103.662 15.094L106.499 17.083C106.556 17.154 106.587 17.2421 106.587 17.333C106.587 17.4239 106.556 17.5121 106.499 17.583C105.565 18.5792 104.454 19.393 103.223 19.983C102.034 20.5469 100.737 20.8435 99.421 20.852H99.417ZM109.217 20.852V3.33301C109.217 2.60201 109.363 2.45601 109.597 2.45601H122.407C122.455 2.45373 122.503 2.46104 122.548 2.47751C122.594 2.49398 122.635 2.5193 122.67 2.55196C122.706 2.58463 122.734 2.624 122.754 2.66779C122.774 2.71158 122.785 2.7589 122.787 2.80701V6.10701C122.785 6.20724 122.745 6.30285 122.674 6.37372C122.603 6.4446 122.507 6.48522 122.407 6.48702H113.751V9.52901H119.22C119.32 9.53081 119.416 9.57143 119.487 9.64231C119.558 9.71319 119.598 9.8088 119.6 9.90902V13.185C119.598 13.2852 119.558 13.3808 119.487 13.4517C119.416 13.5226 119.32 13.5632 119.22 13.565H113.751V16.694H122.379C122.479 16.6958 122.575 16.7364 122.646 16.8073C122.717 16.8782 122.757 16.9738 122.759 17.074V20.35C122.757 20.4502 122.717 20.5459 122.646 20.6167C122.575 20.6876 122.479 20.7282 122.379 20.73H109.598C109.364 20.735 109.218 20.559 109.218 20.852H109.217ZM126.092 20.852C125.992 20.8502 125.896 20.8096 125.825 20.7387C125.754 20.6679 125.714 20.5722 125.712 20.472V2.95302C125.714 2.8528 125.754 2.75718 125.825 2.6863C125.896 2.61542 125.992 2.57482 126.092 2.57302H129.543C129.665 2.57792 129.781 2.63029 129.865 2.71901L136.593 13.104V2.95302C136.595 2.8528 136.635 2.75718 136.706 2.6863C136.777 2.61542 136.873 2.57482 136.973 2.57302H140.573C140.673 2.57482 140.769 2.61542 140.84 2.6863C140.911 2.75718 140.951 2.8528 140.953 2.95302V20.472C140.951 20.5722 140.911 20.6679 140.84 20.7387C140.769 20.8096 140.673 20.8502 140.573 20.852H137.119C136.997 20.8471 136.881 20.7947 136.797 20.706L130.097 10.382V20.472C130.095 20.5722 130.055 20.6679 129.984 20.7387C129.913 20.8096 129.817 20.8502 129.717 20.852H126.092ZM148.904 20.852C148.856 20.8505 148.809 20.8394 148.765 20.8194C148.721 20.7994 148.682 20.7709 148.649 20.7355C148.616 20.7001 148.591 20.6586 148.574 20.6134C148.558 20.5682 148.551 20.5201 148.553 20.472V6.67202H144.548C144.5 6.6743 144.452 6.66699 144.407 6.65052C144.361 6.63405 144.32 6.60875 144.284 6.57609C144.249 6.54342 144.221 6.50404 144.201 6.46026C144.181 6.41647 144.17 6.36914 144.168 6.32102V2.95801C144.17 2.85779 144.21 2.76218 144.281 2.6913C144.352 2.62043 144.448 2.57982 144.548 2.57802H157.095C157.145 2.5765 157.195 2.58528 157.242 2.60384C157.289 2.6224 157.331 2.65034 157.367 2.68593C157.403 2.72153 157.431 2.76402 157.449 2.81081C157.468 2.8576 157.477 2.9077 157.475 2.95801V6.32102C157.476 6.36988 157.466 6.41839 157.447 6.46335C157.428 6.50831 157.4 6.54871 157.364 6.58187C157.328 6.61503 157.285 6.64021 157.239 6.65575C157.193 6.67129 157.144 6.67683 157.095 6.67202H153.085V20.472C153.083 20.5722 153.043 20.6679 152.972 20.7387C152.901 20.8096 152.805 20.8502 152.705 20.852H148.904ZM167.037 21.027C165.615 21.0254 164.207 20.7575 162.884 20.237C161.585 19.7586 160.385 19.0446 159.345 18.131C159.289 18.0743 159.251 18.0026 159.236 17.9246C159.22 17.8467 159.227 17.7658 159.257 17.692L160.281 14.212C160.302 14.1574 160.337 14.1097 160.384 14.0743C160.43 14.039 160.486 14.0174 160.544 14.012C160.601 13.9967 160.66 13.9968 160.717 14.0123C160.774 14.0278 160.825 14.058 160.866 14.1C162.416 15.562 164.166 16.878 166.366 17C166.963 17.0642 167.567 17.0246 168.15 16.883C169.876 16.327 169.144 14.573 167.858 14.046C167.419 13.8707 166.805 13.666 166.015 13.432C165.032 13.1746 164.073 12.832 163.149 12.408C162.344 12.036 161.641 11.4739 161.102 10.77C160.51 9.9015 160.213 8.86606 160.254 7.81601C160.23 6.75485 160.537 5.71251 161.131 4.83301C161.737 3.9618 162.579 3.2818 163.558 2.87302C164.689 2.40932 165.903 2.18035 167.126 2.20002C168.328 2.19638 169.522 2.38406 170.665 2.75602C171.75 3.09042 172.783 3.57261 173.736 4.18902C173.809 4.23972 173.861 4.31506 173.882 4.4011C173.904 4.48713 173.893 4.57804 173.853 4.65702L172.885 7.92502C172.869 7.97739 172.839 8.02413 172.798 8.05962C172.756 8.09511 172.705 8.11782 172.651 8.12502C172.603 8.14188 172.552 8.14802 172.502 8.14301C172.451 8.138 172.403 8.12195 172.359 8.09601C171.123 7.13603 169.698 6.44833 168.177 6.07802C167.153 5.93202 165.603 5.99001 165.252 7.21901C164.813 8.79801 167.124 9.20801 168.177 9.52901C169.167 9.81305 170.136 10.1649 171.077 10.582C171.884 10.9791 172.585 11.5616 173.124 12.282C173.742 13.1611 174.051 14.2206 174.001 15.294C174.023 16.4001 173.695 17.4849 173.065 18.394C172.445 19.2824 171.582 19.973 170.579 20.383C169.45 20.8176 168.249 21.0361 167.039 21.027H167.037Z" fill="white"/>
<path d="M90.436 61.609C87.334 61.6481 84.2788 60.8512 81.591 59.302C78.9857 57.751 76.8424 55.5317 75.383 52.874C73.8683 50.0951 73.0926 46.9737 73.13 43.809C73.0979 40.673 73.8937 37.5841 75.437 34.854C76.9578 32.2345 79.1355 30.0568 81.755 28.536C84.1737 27.1657 86.8803 26.3823 89.657 26.2487C92.4337 26.1152 95.203 26.6352 97.742 27.767C99.9776 28.7508 101.995 30.1701 103.676 31.942C103.783 32.0743 103.841 32.2391 103.841 32.409C103.841 32.5789 103.783 32.7437 103.676 32.876L98.457 37.161C98.3896 37.2424 98.3059 37.3088 98.2114 37.3562C98.1169 37.4035 98.0136 37.4307 97.908 37.436C97.8013 37.4368 97.6959 37.4122 97.6005 37.3644C97.5051 37.3167 97.4223 37.2469 97.359 37.161C96.068 35.5271 94.2092 34.4391 92.1525 34.1133C90.0957 33.7876 87.9917 34.248 86.259 35.403C82.959 37.436 81.754 41.172 81.919 44.903C82.0435 46.7652 82.7375 48.5441 83.907 49.9985C85.0765 51.453 86.665 52.5127 88.457 53.034C90.0046 53.5525 91.6694 53.6105 93.2493 53.201C94.8292 52.7915 96.2562 51.932 97.357 50.727C97.4304 50.6602 97.5178 50.6108 97.6128 50.5822C97.7078 50.5537 97.808 50.5468 97.906 50.562C98.0005 50.5516 98.096 50.5665 98.1828 50.6051C98.2696 50.6438 98.3446 50.7049 98.4 50.782L103.729 54.518C103.836 54.6503 103.894 54.8151 103.894 54.985C103.894 55.1549 103.836 55.3197 103.729 55.452C101.975 57.322 99.8885 58.8496 97.576 59.957C95.3444 61.0216 92.9065 61.5842 90.434 61.605L90.436 61.609ZM110.104 61.609C110.009 61.6119 109.915 61.5954 109.827 61.5606C109.739 61.5257 109.66 61.4732 109.593 61.4063C109.526 61.3395 109.473 61.2596 109.438 61.1716C109.404 61.0837 109.387 60.9895 109.39 60.895V27.984C109.387 27.8894 109.403 27.7952 109.438 27.7072C109.473 27.6192 109.525 27.5392 109.592 27.4723C109.659 27.4054 109.739 27.3529 109.827 27.3181C109.915 27.2833 110.009 27.2669 110.104 27.27H122.576C125.701 27.2146 128.787 27.9728 131.531 29.47C134.127 30.8674 136.264 32.9859 137.684 35.57C139.162 38.2815 139.92 41.327 139.884 44.415C139.936 47.529 139.158 50.6006 137.631 53.315C136.185 55.917 134.007 58.0378 131.368 59.415C128.587 60.9191 125.464 61.677 122.303 61.615L110.104 61.609ZM117.904 53.917H122.739C124.264 53.9399 125.766 53.5406 127.079 52.763C128.37 51.9387 129.414 50.7809 130.101 49.412C130.85 47.8727 131.227 46.1788 131.201 44.467C131.23 42.7491 130.833 41.0507 130.047 39.523C129.336 38.1213 128.252 36.9427 126.915 36.117C125.547 35.321 123.992 34.9037 122.41 34.908H117.906L117.904 53.917ZM146.088 61.609C145.9 61.6057 145.72 61.5294 145.587 61.3962C145.454 61.263 145.377 61.0833 145.374 60.895V27.984C145.377 27.7957 145.454 27.616 145.587 27.4828C145.72 27.3496 145.9 27.2733 146.088 27.27H152.568C152.796 27.2806 153.011 27.3792 153.168 27.545L165.804 47.045V27.984C165.807 27.7957 165.884 27.616 166.017 27.4828C166.15 27.3496 166.33 27.2733 166.518 27.27H173.276C173.464 27.2733 173.644 27.3496 173.777 27.4828C173.91 27.616 173.987 27.7957 173.99 27.984V60.893C173.987 61.0813 173.91 61.261 173.777 61.3942C173.644 61.5274 173.464 61.6037 173.276 61.607H166.793C166.565 61.5964 166.35 61.4979 166.193 61.332L153.617 41.939V60.893C153.614 61.0813 153.537 61.261 153.404 61.3942C153.271 61.5274 153.091 61.6037 152.903 61.607H146.09L146.088 61.609Z" fill="white"/>
</svg>
