<svg width="55" height="56" viewBox="0 0 55 56" fill="none" xmlns="http://www.w3.org/2000/svg">
<g filter="url(#filter0_d_1_175)">
<path d="M27.5 46.298C39.3741 46.298 49 36.6721 49 24.798C49 12.9239 39.3741 3.29797 27.5 3.29797C15.6259 3.29797 6 12.9239 6 24.798C6 36.6721 15.6259 46.298 27.5 46.298Z" fill="#CAE2BC"/>
</g>
<path d="M16.5 28.3C18.433 28.3 20 26.733 20 24.8C20 22.867 18.433 21.3 16.5 21.3C14.567 21.3 13 22.867 13 24.8C13 26.733 14.567 28.3 16.5 28.3Z" fill="#59A52C"/>
<path d="M27.5 28.3C29.433 28.3 31 26.733 31 24.8C31 22.867 29.433 21.3 27.5 21.3C25.567 21.3 24 22.867 24 24.8C24 26.733 25.567 28.3 27.5 28.3Z" fill="#59A52C"/>
<path d="M38.5 28.3C40.433 28.3 42 26.733 42 24.8C42 22.867 40.433 21.3 38.5 21.3C36.567 21.3 35 22.867 35 24.8C35 26.733 36.567 28.3 38.5 28.3Z" fill="#59A52C"/>
<defs>
<filter id="filter0_d_1_175" x="0" y="0.297974" width="55" height="55" filterUnits="userSpaceOnUse" color-interpolation-filters="sRGB">
<feFlood flood-opacity="0" result="BackgroundImageFix"/>
<feColorMatrix in="SourceAlpha" type="matrix" values="0 0 0 0 0 0 0 0 0 0 0 0 0 0 0 0 0 0 127 0" result="hardAlpha"/>
<feOffset dy="3"/>
<feGaussianBlur stdDeviation="3"/>
<feColorMatrix type="matrix" values="0 0 0 0 0.34902 0 0 0 0 0.647059 0 0 0 0 0.172549 0 0 0 0.2 0"/>
<feBlend mode="normal" in2="BackgroundImageFix" result="effect1_dropShadow_1_175"/>
<feBlend mode="normal" in="SourceGraphic" in2="effect1_dropShadow_1_175" result="shape"/>
</filter>
</defs>
</svg>
