<svg width="23" height="23" viewBox="0 0 23 23" fill="none" xmlns="http://www.w3.org/2000/svg">
<path opacity="0.3" d="M16.7949 14.9L15.4429 14.559C16.8293 12.9421 17.5354 10.851 17.4128 8.72464C17.2902 6.5983 16.3486 4.60214 14.7856 3.1553C13.2225 1.70845 11.1597 0.92346 9.03027 0.965141C6.9008 1.00682 4.87031 1.87193 3.36511 3.37883C1.85991 4.88573 0.997096 6.9172 0.957823 9.04671C0.91855 11.1762 1.70587 13.2381 3.15448 14.7995C4.60309 16.3609 6.60032 17.3003 8.7268 17.4204C10.8533 17.5406 12.9436 16.8322 14.5589 15.444L14.8999 16.796L20.2699 22.166C20.5196 22.4157 20.8583 22.556 21.2114 22.556C21.5645 22.556 21.9032 22.4157 22.1529 22.166C22.4026 21.9163 22.5429 21.5776 22.5429 21.2245C22.5429 20.8714 22.4026 20.5327 22.1529 20.283L16.7949 14.9ZM9.2139 14.9C8.08931 14.9 6.98999 14.5665 6.05493 13.9417C5.11987 13.3169 4.39108 12.4289 3.96072 11.3899C3.53036 10.3509 3.41778 9.20768 3.63717 8.10471C3.85657 7.00173 4.3981 5.98858 5.1933 5.19337C5.9885 4.39817 7.00164 3.85663 8.10461 3.63724C9.20759 3.41784 10.3509 3.53045 11.3899 3.96081C12.4288 4.39117 13.3169 5.11996 13.9416 6.05502C14.5664 6.99007 14.8999 8.0894 14.8999 9.21399C14.901 9.96098 14.7546 10.7008 14.4692 11.3912C14.1839 12.0815 13.7651 12.7087 13.2369 13.2369C12.7087 13.7651 12.0814 14.1839 11.3911 14.4693C10.7007 14.7547 9.96089 14.901 9.2139 14.9Z" fill="#E4E6EF"/>
</svg>
