<svg width="55" height="40" viewBox="0 0 55 40" fill="none" xmlns="http://www.w3.org/2000/svg">
<path d="M31.054 23.818C30.2849 24.5875 29.3049 25.1116 28.2379 25.3241C27.171 25.5366 26.0649 25.4278 25.0598 25.0116C24.0546 24.5954 23.1954 23.8905 22.591 22.986C21.9865 22.0814 21.6638 21.0179 21.6638 19.93C21.6638 18.8421 21.9865 17.7786 22.591 16.874C23.1954 15.9695 24.0546 15.2646 25.0598 14.8484C26.0649 14.4322 27.171 14.3234 28.2379 14.5359C29.3049 14.7484 30.2849 15.2725 31.054 16.042C32.0806 17.0756 32.6568 18.4732 32.6568 19.93C32.6568 21.3868 32.0806 22.7844 31.054 23.818Z" fill="#59A52C"/>
<path d="M38.58 32.1491C38.0619 32.1489 37.5555 31.9951 37.1249 31.7071C36.6943 31.4191 36.3587 31.0099 36.1607 30.5312C35.9627 30.0525 35.911 29.5258 36.0124 29.0178C36.1137 28.5097 36.3634 28.0432 36.73 27.6771C37.7492 26.6607 38.5579 25.4532 39.1097 24.1237C39.6615 22.7942 39.9456 21.369 39.9456 19.9295C39.9456 18.4901 39.6615 17.0648 39.1097 15.7354C38.5579 14.4059 37.7492 13.1984 36.73 12.182C36.4865 11.9391 36.2934 11.6506 36.1615 11.333C36.0296 11.0154 35.9615 10.6749 35.9612 10.331C35.9609 9.98712 36.0283 9.64652 36.1596 9.32868C36.2909 9.01083 36.4835 8.72195 36.7265 8.47855C36.9694 8.23514 37.2579 8.04198 37.5755 7.91007C37.8931 7.77816 38.2336 7.7101 38.5775 7.70978C38.9214 7.70945 39.262 7.77687 39.5798 7.90817C39.8977 8.03948 40.1866 8.2321 40.43 8.47505C41.9367 9.97778 43.1321 11.763 43.9478 13.7285C44.7634 15.694 45.1833 17.8011 45.1833 19.929C45.1833 22.057 44.7634 24.1641 43.9478 26.1296C43.1321 28.0951 41.9367 29.8803 40.43 31.383C40.1873 31.6263 39.8989 31.8192 39.5814 31.9507C39.2639 32.0821 38.9236 32.1495 38.58 32.1491Z" fill="#CAE2BC"/>
<path d="M44.5019 39.8571C43.9837 39.8574 43.477 39.7039 43.046 39.416C42.6151 39.1281 42.2793 38.7188 42.0811 38.2399C41.883 37.761 41.8315 37.234 41.9331 36.7258C42.0347 36.2176 42.2849 35.751 42.6519 35.3851C44.6856 33.3575 46.2992 30.9485 47.4001 28.2962C48.5011 25.6439 49.0678 22.8003 49.0678 19.9286C49.0678 17.0568 48.5011 14.2133 47.4001 11.561C46.2992 8.90866 44.6856 6.49967 42.6519 4.47209C42.1603 3.98144 41.8838 3.3156 41.8831 2.62106C41.8825 1.92652 42.1578 1.26017 42.6484 0.768588C43.1391 0.277009 43.8049 0.00047447 44.4995 -0.000181934C45.194 -0.000838338 45.8603 0.274437 46.3519 0.765088C48.8728 3.27925 50.8729 6.26608 52.2376 9.55449C53.6023 12.8429 54.3048 16.3683 54.3048 19.9286C54.3048 23.4889 53.6023 27.0143 52.2376 30.3027C50.8729 33.5911 48.8728 36.5779 46.3519 39.0921C46.1091 39.3348 45.8208 39.5272 45.5035 39.6583C45.1863 39.7894 44.8462 39.8566 44.5029 39.8561L44.5019 39.8571Z" fill="#CAE2BC"/>
<path d="M15.725 32.148C15.3815 32.1485 15.0412 32.0812 14.7238 31.9499C14.4063 31.8186 14.1179 31.626 13.875 31.383C12.3683 29.8803 11.1729 28.0951 10.3572 26.1296C9.54156 24.1641 9.1217 22.057 9.1217 19.929C9.1217 17.8011 9.54156 15.694 10.3572 13.7285C11.1729 11.763 12.3683 9.97778 13.875 8.47505C14.1184 8.2321 14.4073 8.03948 14.7251 7.90817C15.043 7.77687 15.3836 7.70945 15.7275 7.70978C16.0714 7.7101 16.4118 7.77816 16.7294 7.91007C17.047 8.04198 17.3355 8.23514 17.5785 8.47855C17.8214 8.72195 18.014 9.01083 18.1454 9.32868C18.2767 9.64652 18.3441 9.98712 18.3438 10.331C18.3434 10.6749 18.2754 11.0154 18.1435 11.333C18.0116 11.6506 17.8184 11.9391 17.575 12.182C16.5557 13.1984 15.747 14.4059 15.1952 15.7354C14.6434 17.0648 14.3594 18.4901 14.3594 19.9295C14.3594 21.369 14.6434 22.7942 15.1952 24.1237C15.747 25.4532 16.5557 26.6607 17.575 27.677C17.9415 28.0431 18.1912 28.5096 18.2925 29.0175C18.3939 29.5255 18.3423 30.0521 18.1444 30.5307C17.9465 31.0094 17.6111 31.4186 17.1807 31.7067C16.7502 31.9947 16.2439 32.1487 15.726 32.149L15.725 32.148Z" fill="#CAE2BC"/>
<path d="M9.80199 39.8571C9.45845 39.8577 9.11817 39.7904 8.8007 39.6591C8.48322 39.5278 8.1948 39.3351 7.95199 39.0921C5.43108 36.5779 3.43099 33.5911 2.0663 30.3027C0.701612 27.0143 -0.000854492 23.4889 -0.000854492 19.9286C-0.000854492 16.3682 0.701612 12.8429 2.0663 9.55449C3.43099 6.26608 5.43108 3.27925 7.95199 0.765088C8.44357 0.274437 9.10993 -0.00083833 9.80447 -0.000181934C10.499 0.000474462 11.1648 0.277009 11.6555 0.768588C12.1461 1.26017 12.4214 1.92652 12.4208 2.62106C12.4201 3.3156 12.1436 3.98144 11.652 4.47209C9.61843 6.49974 8.00497 8.90874 6.90408 11.5611C5.80318 14.2134 5.2365 17.0569 5.2365 19.9286C5.2365 22.8003 5.80318 25.6438 6.90408 28.2961C8.00497 30.9484 9.61843 33.3574 11.652 35.3851C12.019 35.7509 12.2691 36.2175 12.3707 36.7256C12.4724 37.2337 12.4209 37.7605 12.2229 38.2394C12.025 38.7183 11.6893 39.1276 11.2585 39.4156C10.8277 39.7035 10.3212 39.8572 9.80299 39.8571H9.80199Z" fill="#CAE2BC"/>
</svg>
