<svg width="29" height="18" viewBox="0 0 29 18" fill="none" xmlns="http://www.w3.org/2000/svg">
<path opacity="0.5" d="M21.1741 8.942L27.9401 2.179C28.168 1.93656 28.2924 1.61486 28.287 1.28219C28.2815 0.949507 28.1467 0.632039 27.911 0.397159C27.6754 0.162279 27.3574 0.0284791 27.0248 0.024156C26.6921 0.0198328 26.3708 0.145327 26.1291 0.374004L18.4601 8.038C18.2282 8.27062 18.0949 8.5837 18.088 8.91208C18.0812 9.24047 18.2012 9.55886 18.4231 9.801L26.1231 17.518C26.3627 17.759 26.6882 17.8948 27.0281 17.8958C27.3679 17.8967 27.6941 17.7626 27.9351 17.523C28.176 17.2834 28.3119 16.9579 28.3129 16.618C28.3138 16.2782 28.1797 15.952 27.9401 15.711L21.1741 8.942Z" fill="white"/>
<path opacity="0.8" d="M12.085 8.942L18.851 2.179C19.0789 1.93656 19.2033 1.61486 19.1979 1.28219C19.1924 0.949507 19.0576 0.632039 18.8219 0.397159C18.5862 0.162279 18.2683 0.0284791 17.9356 0.024156C17.6029 0.0198328 17.2817 0.145327 17.04 0.374004L9.37098 8.038C9.13909 8.27062 9.00583 8.5837 8.99894 8.91208C8.99205 9.24047 9.11205 9.55886 9.33398 9.801L17.034 17.518C17.2736 17.759 17.5991 17.8948 17.9389 17.8958C18.2788 17.8967 18.605 17.7626 18.846 17.523C19.0869 17.2834 19.2228 16.9579 19.2238 16.618C19.2247 16.2782 19.0906 15.952 18.851 15.711L12.085 8.942Z" fill="white"/>
<path d="M3.08498 8.942L9.85098 2.179C10.0789 1.93656 10.2033 1.61486 10.1979 1.28219C10.1924 0.949507 10.0576 0.632039 9.82191 0.397159C9.58625 0.162279 9.26833 0.0284791 8.93564 0.024156C8.60295 0.0198328 8.28166 0.145327 8.03998 0.374004L0.370977 8.038C0.139088 8.27062 0.00583023 8.5837 -0.00106155 8.91208C-0.00795333 9.24047 0.112052 9.55886 0.333978 9.801L8.03398 17.518C8.2736 17.759 8.59913 17.8948 8.93894 17.8958C9.27876 17.8967 9.60503 17.7626 9.84598 17.523C10.0869 17.2834 10.2228 16.9579 10.2238 16.618C10.2247 16.2782 10.0906 15.952 9.85098 15.711L3.08498 8.942Z" fill="white"/>
</svg>
