<svg width="45" height="44" viewBox="0 0 45 44" fill="none" xmlns="http://www.w3.org/2000/svg">
<path d="M9.15599 43.3C8.86383 43.3005 8.57446 43.2432 8.30451 43.1315C8.03456 43.0198 7.78935 42.8558 7.58299 42.649L1.65199 36.718C1.33976 36.4071 1.12691 36.0105 1.04044 35.5785C0.953968 35.1465 0.997769 34.6985 1.16629 34.2914C1.3348 33.8843 1.62044 33.5364 1.98697 33.2919C2.35349 33.0474 2.78439 32.9173 3.22499 32.918H32.88C34.6496 32.918 36.3468 32.215 37.5982 30.9637C38.8495 29.7123 39.5525 28.0152 39.5525 26.2455C39.5525 24.4759 38.8495 22.7787 37.5982 21.5273C36.3468 20.276 34.6496 19.573 32.88 19.573H12.121C11.5311 19.573 10.9655 19.3387 10.5484 18.9216C10.1313 18.5045 9.89699 17.9389 9.89699 17.349C9.89699 16.7592 10.1313 16.1935 10.5484 15.7764C10.9655 15.3593 11.5311 15.125 12.121 15.125H32.88C34.3492 15.1111 35.8067 15.3884 37.1681 15.9411C38.5295 16.4937 39.7679 17.3106 40.8118 18.3446C41.8557 19.3786 42.6843 20.6092 43.2498 21.9653C43.8153 23.3215 44.1064 24.7762 44.1064 26.2455C44.1064 27.7148 43.8153 29.1696 43.2498 30.5257C42.6843 31.8818 41.8557 33.1124 40.8118 34.1465C39.7679 35.1805 38.5295 35.9974 37.1681 36.55C35.8067 37.1026 34.3492 37.38 32.88 37.366H8.59399L10.728 39.5C11.0402 39.8109 11.2531 40.2075 11.3395 40.6395C11.426 41.0716 11.3822 41.5195 11.2137 41.9266C11.0452 42.3337 10.7595 42.6816 10.393 42.9261C10.0265 43.1706 9.59559 43.3008 9.15499 43.3H9.15599Z" fill="#59A52C"/>
<path d="M32.879 28.472H12.121C10.6517 28.486 9.19431 28.2086 7.83289 27.656C6.47146 27.1034 5.23304 26.2865 4.18917 25.2525C3.1453 24.2184 2.31668 22.9878 1.75118 21.6317C1.18569 20.2756 0.894531 18.8208 0.894531 17.3515C0.894531 15.8822 1.18569 14.4275 1.75118 13.0714C2.31668 11.7152 3.1453 10.4846 4.18917 9.4506C5.23304 8.41658 6.47146 7.59967 7.83289 7.04706C9.19431 6.49445 10.6517 6.21709 12.121 6.23103H36.466L34.353 4.08403C34.1481 3.87588 33.9861 3.62941 33.8765 3.35869C33.7668 3.08796 33.7115 2.79829 33.7138 2.5062C33.7184 1.91631 33.9571 1.3524 34.3775 0.938527C34.5856 0.733599 34.8321 0.571675 35.1028 0.462001C35.3736 0.352326 35.6632 0.297048 35.9553 0.299323C36.5452 0.303917 37.1091 0.542659 37.523 0.963027L43.361 6.89403C43.6685 7.20645 43.8767 7.60276 43.9597 8.03319C44.0426 8.46361 43.9965 8.90895 43.8272 9.31326C43.6578 9.71757 43.3728 10.0628 43.0078 10.3056C42.6429 10.5484 42.2143 10.678 41.776 10.678H12.121C10.3513 10.678 8.65415 11.381 7.40282 12.6324C6.15148 13.8837 5.44849 15.5809 5.44849 17.3505C5.44849 19.1202 6.15148 20.8174 7.40282 22.0687C8.65415 23.32 10.3513 24.023 12.121 24.023H32.879C33.4688 24.023 34.0345 24.2573 34.4516 24.6744C34.8687 25.0915 35.103 25.6572 35.103 26.247C35.103 26.8369 34.8687 27.4025 34.4516 27.8196C34.0345 28.2367 33.4688 28.471 32.879 28.471V28.472Z" fill="#CAE2BC"/>
</svg>
