<svg width="35" height="44" viewBox="0 0 35 44" fill="none" xmlns="http://www.w3.org/2000/svg">
<path d="M17.355 28.87C24.1514 28.87 29.661 23.3604 29.661 16.564C29.661 9.76758 24.1514 4.258 17.355 4.258C10.5586 4.258 5.04901 9.76758 5.04901 16.564C5.04901 23.3604 10.5586 28.87 17.355 28.87Z" fill="#59A52C"/>
<path d="M2.37301 26.267C5.77521 32.7582 10.553 38.4288 16.373 42.883C16.4827 43.0074 16.6155 43.1093 16.764 43.183C16.9116 43.2559 17.0734 43.2955 17.238 43.299H17.3C17.4873 43.2982 17.6721 43.2558 17.841 43.175C17.9767 43.1103 18.0978 43.0188 18.197 42.906C31.294 32.875 33.849 22.361 33.943 21.95C34.6239 19.3973 34.7098 16.7224 34.1941 14.1313C33.6785 11.5402 32.575 9.10204 30.9686 7.00457C29.3623 4.9071 27.296 3.2063 24.9288 2.03316C22.5616 0.860022 19.9568 0.245845 17.3149 0.237931C14.673 0.230018 12.0645 0.82858 9.69036 1.98752C7.31621 3.14646 5.23974 4.83485 3.62086 6.92266C2.00198 9.01047 0.883897 11.442 0.352713 14.03C-0.178471 16.6179 -0.108579 19.2933 0.557007 21.85C0.566431 21.9489 0.587924 22.0463 0.621006 22.14C1.11353 23.5527 1.6988 24.9314 2.37301 26.267ZM17.154 14.884C15.9921 14.8799 14.8524 15.202 13.8644 15.8134C12.8764 16.4249 12.0797 17.3013 11.565 18.343C11.4159 18.6011 11.1739 18.7927 10.8884 18.8785C10.6029 18.9644 10.2954 18.9382 10.0286 18.8051C9.76177 18.6721 9.55575 18.4423 9.45251 18.1627C9.34928 17.883 9.35661 17.5744 9.47301 17.3C10.1941 15.8553 11.3078 14.6432 12.6865 13.8027C14.0651 12.9623 15.6528 12.5275 17.2673 12.5484C18.8817 12.5693 20.4576 13.0449 21.8141 13.9208C23.1705 14.7966 24.2526 16.0371 24.936 17.5C25.0573 17.7795 25.0648 18.0954 24.957 18.3804C24.8491 18.6655 24.6344 18.8972 24.3585 19.0265C24.0825 19.1558 23.767 19.1723 23.479 19.0727C23.191 18.9731 22.9531 18.7651 22.816 18.493C22.3114 17.4166 21.5112 16.5058 20.5087 15.8669C19.5062 15.2279 18.3428 14.887 17.154 14.884ZM20.699 21.791C20.699 22.4935 20.4906 23.1803 20.1001 23.7644C19.7097 24.3485 19.1547 24.8036 18.5055 25.0722C17.8563 25.3408 17.142 25.4108 16.453 25.2733C15.764 25.1358 15.1313 24.797 14.6349 24.2998C14.1386 23.8026 13.8008 23.1693 13.6645 22.4801C13.5282 21.7908 13.5993 21.0767 13.869 20.4279C14.1387 19.7791 14.5948 19.225 15.1795 18.8355C15.7643 18.446 16.4514 18.2388 17.154 18.24C18.0952 18.2408 18.9975 18.6153 19.6626 19.2812C20.3278 19.947 20.7013 20.8498 20.701 21.791H20.699ZM17.136 8.92397C15.2497 8.91783 13.3994 9.44071 11.7952 10.4332C10.1911 11.4258 8.8974 12.8482 8.06101 14.539C7.91894 14.811 7.67578 15.0164 7.38384 15.1109C7.0919 15.2055 6.77451 15.1816 6.49996 15.0445C6.2254 14.9075 6.01563 14.6681 5.91578 14.3779C5.81592 14.0878 5.83396 13.77 5.96601 13.493C7.01351 11.3927 8.63197 9.63036 10.6356 8.4082C12.6393 7.18604 14.947 6.5536 17.2937 6.58346C19.6405 6.61332 21.9314 7.30428 23.9033 8.57703C25.8752 9.84978 27.4483 11.6527 28.442 13.779C28.5072 13.9182 28.5442 14.069 28.5511 14.2225C28.5579 14.3761 28.5344 14.5296 28.482 14.6741C28.4295 14.8186 28.3491 14.9513 28.2453 15.0647C28.1415 15.1781 28.0163 15.27 27.877 15.335C27.7207 15.4089 27.5499 15.4469 27.377 15.446C27.1544 15.4462 26.9362 15.3829 26.7483 15.2636C26.5604 15.1442 26.4104 14.9736 26.316 14.772C25.4965 13.0281 24.1987 11.5527 22.5736 10.5174C20.9485 9.48219 19.0628 8.92961 17.136 8.92397Z" fill="#CAE2BC"/>
</svg>
