<svg width="18" height="18" viewBox="0 0 18 18" fill="none" xmlns="http://www.w3.org/2000/svg">
<path d="M16.208 6.857H10.6V1.25C10.6004 1.08582 10.5684 0.923182 10.5057 0.771411C10.4431 0.619641 10.3512 0.48173 10.2351 0.365591C10.1191 0.249452 9.98123 0.157372 9.82951 0.0946345C9.67779 0.0318972 9.51518 -0.000262185 9.351 1.6098e-06H8.1C7.76945 0.00106096 7.45284 0.13332 7.21976 0.367712C6.98668 0.602104 6.8562 0.919449 6.857 1.25V6.86H1.247C0.916794 6.86 0.600069 6.99097 0.366297 7.22418C0.132525 7.45739 0.000794401 7.7738 0 8.104L0 9.35C0 9.68073 0.13138 9.99791 0.365238 10.2318C0.599096 10.4656 0.916275 10.597 1.247 10.597H6.857V16.207C6.85805 16.5363 6.98935 16.8519 7.22223 17.0848C7.45511 17.3176 7.77066 17.4489 8.1 17.45H9.351C9.68121 17.4505 9.99814 17.3201 10.2323 17.0872C10.4664 16.8544 10.5987 16.5382 10.6 16.208V10.598H16.21C16.5406 10.5975 16.8574 10.4657 17.0908 10.2317C17.3243 9.99769 17.4553 9.68055 17.455 9.35V8.104C17.455 7.77328 17.3236 7.4561 17.0898 7.22224C16.8559 6.98838 16.5387 6.857 16.208 6.857Z" fill="#59A52C"/>
</svg>
