<svg width="14" height="24" viewBox="0 0 14 24" fill="none" xmlns="http://www.w3.org/2000/svg">
<path d="M6.56592 21.1807L11.5289 15.6587C11.6105 15.5626 11.712 15.4854 11.8264 15.4325C11.9408 15.3795 12.0654 15.3521 12.1914 15.3521C12.3175 15.3521 12.442 15.3795 12.5564 15.4325C12.6708 15.4854 12.7723 15.5626 12.8539 15.6587C13.0298 15.8646 13.1264 16.1265 13.1264 16.3972C13.1264 16.668 13.0298 16.9299 12.8539 17.1357L7.22992 23.3927C7.15046 23.4854 7.05238 23.5603 6.94206 23.6126C6.83175 23.6649 6.71166 23.6934 6.58961 23.6962C6.46756 23.6991 6.34628 23.6762 6.23366 23.6291C6.12104 23.5819 6.01959 23.5116 5.93592 23.4227L0.273922 17.1397C0.0974858 16.9341 0.000488281 16.6722 0.000488281 16.4012C0.000488281 16.1303 0.0974858 15.8683 0.273922 15.6627C0.355501 15.5666 0.457011 15.4894 0.571412 15.4365C0.685812 15.3835 0.810363 15.3561 0.936422 15.3561C1.06248 15.3561 1.18703 15.3835 1.30143 15.4365C1.41583 15.4894 1.51734 15.5666 1.59892 15.6627L6.56592 21.1807Z" fill="white"/>
<path d="M6.55993 2.51473L1.59693 8.03773C1.51535 8.13383 1.41384 8.21104 1.29944 8.26398C1.18504 8.31693 1.06049 8.34436 0.934429 8.34436C0.80837 8.34436 0.683818 8.31693 0.569418 8.26398C0.455018 8.21104 0.353507 8.13383 0.271929 8.03773C0.0960665 7.83186 -0.000555992 7.56998 -0.000555992 7.29923C-0.000555992 7.02847 0.0960665 6.7666 0.271929 6.56073L5.89593 0.303725C5.97539 0.211044 6.07347 0.136126 6.18379 0.0838385C6.2941 0.0315514 6.41419 0.00306702 6.53624 0.000237465C6.65829 -0.00259209 6.77957 0.0202961 6.89219 0.0674143C7.00481 0.114532 7.10626 0.184827 7.18993 0.273726L12.8519 6.55573C13.0309 6.76005 13.1284 7.0231 13.1259 7.29473C13.1282 7.566 13.0307 7.82866 12.8519 8.03273C12.7704 8.129 12.6688 8.20636 12.5543 8.25941C12.4398 8.31247 12.3151 8.33995 12.1889 8.33995C12.0627 8.33995 11.9381 8.31247 11.8236 8.25941C11.7091 8.20636 11.6075 8.129 11.5259 8.03273L6.55993 2.51473Z" fill="white"/>
</svg>
