<svg width="8" height="8" viewBox="0 0 8 8" fill="none" xmlns="http://www.w3.org/2000/svg">
<path d="M4.94821 4L7.80529 1.14145C7.86682 1.08037 7.91581 1.00692 7.94927 0.92556C7.98274 0.844198 8 0.756614 8 0.668108C8 0.579603 7.98274 0.492019 7.94927 0.410657C7.91581 0.329296 7.86682 0.25585 7.80529 0.194766C7.67699 0.0696338 7.50776 0 7.33193 0C7.15611 0 6.98688 0.0696338 6.85858 0.194766L4.00151 3.05332L1.14362 0.194766C1.01533 0.0696338 0.846093 0 0.670271 0C0.494449 0 0.325214 0.0696338 0.196919 0.194766C0.134757 0.255469 0.0852121 0.32879 0.0513429 0.410202C0.0174737 0.491615 0 0.579391 0 0.668108C0 0.756826 0.0174737 0.844601 0.0513429 0.926013C0.0852121 1.00743 0.134757 1.08075 0.196919 1.14145L3.05399 4L0.196919 6.85855C0.134757 6.91925 0.0852121 6.99257 0.0513429 7.07399C0.0174737 7.1554 0 7.24318 0 7.33189C0 7.42061 0.0174737 7.50838 0.0513429 7.5898C0.0852121 7.67121 0.134757 7.74453 0.196919 7.80523C0.325214 7.93037 0.494449 8 0.670271 8C0.846093 8 1.01533 7.93037 1.14362 7.80523L4.0007 4.94668L6.85777 7.80523C6.98607 7.93037 7.1553 8 7.33113 8C7.50695 8 7.67618 7.93037 7.80448 7.80523C7.86601 7.74415 7.915 7.6707 7.94847 7.58934C7.98194 7.50798 7.99919 7.4204 7.99919 7.33189C7.99919 7.24339 7.98194 7.1558 7.94847 7.07444C7.915 6.99308 7.86601 6.91963 7.80448 6.85855L4.94821 4Z" fill="#888B96"/>
</svg>
