<svg width="21" height="22" viewBox="0 0 21 22" fill="none" xmlns="http://www.w3.org/2000/svg">
<path d="M16.3891 4.09198L15.0331 19.545H5.09109L3.73509 4.09198L2.01709 4.24298L3.39809 19.98C3.43681 20.3338 3.60417 20.6611 3.86835 20.8997C4.13254 21.1382 4.47514 21.2714 4.83109 21.274H15.2931C15.6499 21.2709 15.9932 21.1367 16.2576 20.897C16.522 20.6573 16.6891 20.3288 16.7271 19.974L18.1071 4.25098L16.3891 4.09198Z" fill="white"/>
<path d="M13.2231 1.39191e-06H6.89908C6.51865 0.0013229 6.15423 0.15324 5.8855 0.42253C5.61677 0.691819 5.46561 1.05657 5.46509 1.437V4.168H7.19008V1.725H12.9391V4.168H14.6641V1.437C14.6638 1.24803 14.6263 1.06096 14.5538 0.886472C14.4812 0.711985 14.375 0.553498 14.2412 0.42006C14.1074 0.286622 13.9486 0.180847 13.7739 0.108773C13.5992 0.0366992 13.4121 -0.000261434 13.2231 1.39191e-06Z" fill="white"/>
<path d="M19.263 3.30499H0.862988C0.634239 3.30499 0.414859 3.39586 0.253109 3.55761C0.0913589 3.71936 0.000488281 3.93874 0.000488281 4.16749C0.000488281 4.39624 0.0913589 4.61562 0.253109 4.77737C0.414859 4.93912 0.634239 5.02999 0.862988 5.02999H19.263C19.4917 5.02999 19.7111 4.93912 19.8729 4.77737C20.0346 4.61562 20.1255 4.39624 20.1255 4.16749C20.1255 3.93874 20.0346 3.71936 19.8729 3.55761C19.7111 3.39586 19.4917 3.30499 19.263 3.30499Z" fill="white"/>
</svg>
