<svg width="24" height="31" viewBox="0 0 24 31" fill="none" xmlns="http://www.w3.org/2000/svg">
<path d="M21.8937 10.1074C21.883 10.0139 21.8458 9.92524 21.7864 9.85197C21.7269 9.77871 21.6477 9.72384 21.558 9.69381C21.4683 9.66378 21.3719 9.65983 21.2801 9.68242C21.1882 9.70502 21.1047 9.75322 21.0394 9.82137C20.7742 10.1005 20.4308 10.2939 20.0538 10.3765C19.6768 10.4591 19.2836 10.4271 18.9251 10.2846C18.5666 10.142 18.2594 9.89564 18.0433 9.57728C17.8272 9.25892 17.7122 8.88329 17.7132 8.49909C17.7128 8.3872 17.6749 8.27863 17.6054 8.19068C17.5359 8.10272 17.4388 8.04044 17.3296 8.01375C17.0269 7.93526 16.7566 7.76412 16.5569 7.52448C16.3571 7.28484 16.238 6.98881 16.2165 6.67819C16.2079 6.55897 16.1562 6.44689 16.0709 6.3627C15.9857 6.27852 15.8727 6.22793 15.7528 6.22031C15.4653 6.19783 15.1904 6.09309 14.9613 5.91873C14.7322 5.74436 14.5587 5.50779 14.4615 5.23751C14.3644 4.96723 14.3479 4.67476 14.4139 4.39533C14.4799 4.1159 14.6257 3.86142 14.8336 3.66254C15.2414 3.26046 15.6982 2.91085 16.1933 2.6219C16.2696 2.57683 16.3324 2.51228 16.3752 2.43492C16.418 2.35757 16.4392 2.27023 16.4367 2.18196C16.4341 2.09369 16.4079 2.00771 16.3608 1.93292C16.3136 1.85813 16.2472 1.79726 16.1684 1.75662C13.9656 0.622555 11.4359 0.283736 9.01024 0.797886C6.5846 1.31204 4.41311 2.64735 2.86573 4.57631C1.31836 6.50528 0.490838 8.90855 0.524162 11.3767C0.557485 13.8448 1.44959 16.2251 3.04848 18.112L9.44827 25.663C9.66804 25.9222 9.94199 26.1304 10.251 26.2733C10.56 26.4162 10.8966 26.4902 11.2373 26.4902C11.578 26.4902 11.9146 26.4162 12.2236 26.2733C12.5326 26.1304 12.8066 25.9222 13.0263 25.663L19.4261 18.112C20.3595 17.013 21.0593 15.737 21.4831 14.3612C21.9069 12.9854 22.046 11.5383 21.8919 10.1074H21.8937ZM11.2378 16.1378C10.2577 16.1382 9.29962 15.8493 8.4846 15.3076C7.66957 14.766 7.03424 13.9959 6.65896 13.0949C6.28368 12.1938 6.18531 11.2023 6.37629 10.2456C6.56726 9.28887 7.03901 8.41003 7.73186 7.72019C8.42471 7.03036 9.30755 6.56052 10.2687 6.3701C11.2299 6.17968 12.2262 6.27724 13.1316 6.65042C14.0371 7.02361 14.811 7.65567 15.3555 8.46666C15.9 9.27765 16.1906 10.2311 16.1906 11.2065C16.1895 12.5137 15.6673 13.7671 14.7388 14.6916C13.8102 15.6161 12.5511 16.1362 11.2378 16.1378ZM21.923 26.0129C21.923 29.9549 10.3488 31.5225 3.85202 29.1304C-0.78231 27.4246 -0.711121 24.0627 5.09247 22.503C5.18376 22.4787 5.28011 22.4808 5.37025 22.5091C5.4604 22.5373 5.54059 22.5905 5.60146 22.6624L8.68834 26.3043C9.0015 26.6734 9.39182 26.9701 9.83207 27.1736C10.2723 27.3771 10.7519 27.4825 11.2373 27.4825C11.7227 27.4825 12.2023 27.3771 12.6425 27.1736C13.0828 26.9701 13.4731 26.6734 13.7863 26.3043L16.8714 22.6642C16.9322 22.5923 17.0124 22.5391 17.1026 22.5108C17.1927 22.4826 17.2891 22.4805 17.3804 22.5048C20.2297 23.27 21.923 24.5453 21.923 26.0102V26.0129ZM20.2973 9.15802C20.167 9.28766 20.001 9.37593 19.8203 9.41168C19.6395 9.44743 19.4522 9.42904 19.282 9.35885C19.1118 9.28865 18.9663 9.1698 18.864 9.01732C18.7616 8.86484 18.707 8.68557 18.707 8.50219C18.707 8.31881 18.7616 8.13955 18.864 7.98707C18.9663 7.83458 19.1118 7.71573 19.282 7.64554C19.4522 7.57534 19.6395 7.55695 19.8203 7.5927C20.001 7.62845 20.167 7.71672 20.2973 7.84637C20.3838 7.93248 20.4525 8.03472 20.4994 8.14725C20.5462 8.25977 20.5703 8.38039 20.5703 8.50219C20.5703 8.624 20.5462 8.74461 20.4994 8.85714C20.4525 8.96967 20.3838 9.07191 20.2973 9.15802ZM21.2201 6.92706C21.0125 6.72014 20.7659 6.55598 20.4945 6.44398C20.2231 6.33198 19.9322 6.27434 19.6384 6.27434C19.3445 6.27434 19.0536 6.33198 18.7822 6.44398C18.5108 6.55598 18.2643 6.72014 18.0567 6.92706C17.9623 7.01423 17.8377 7.0616 17.709 7.05922C17.5803 7.05684 17.4575 7.00489 17.3665 6.9143C17.2755 6.8237 17.2233 6.70152 17.2209 6.57342C17.2185 6.44532 17.2661 6.32129 17.3537 6.22739C17.6535 5.92846 18.0097 5.69131 18.4017 5.5295C18.7937 5.36769 19.214 5.28441 19.6384 5.28441C20.0628 5.28441 20.483 5.36769 20.875 5.5295C21.2671 5.69131 21.6232 5.92846 21.923 6.22739C21.9721 6.27268 22.0114 6.32734 22.0387 6.3881C22.066 6.44886 22.0807 6.51448 22.082 6.58103C22.0832 6.64758 22.0709 6.7137 22.0459 6.77543C22.0209 6.83716 21.9836 6.89323 21.9363 6.9403C21.8891 6.98737 21.8327 7.02446 21.7707 7.04936C21.7087 7.07426 21.6422 7.08646 21.5754 7.08522C21.5085 7.08398 21.4426 7.06934 21.3815 7.04217C21.3205 7.01499 21.2656 6.97584 21.2201 6.92706ZM23.0647 5.09021C22.6149 4.64226 22.0809 4.2869 21.493 4.04445C20.9052 3.802 20.2751 3.67721 19.6388 3.67721C19.0025 3.67721 18.3724 3.802 17.7846 4.04445C17.1968 4.2869 16.6627 4.64226 16.2129 5.09021C16.1674 5.139 16.1125 5.17815 16.0514 5.20532C15.9904 5.2325 15.9244 5.24714 15.8576 5.24838C15.7907 5.24961 15.7243 5.23742 15.6623 5.21252C15.6002 5.18762 15.5439 5.15052 15.4966 5.10346C15.4493 5.05639 15.4121 5.00032 15.387 4.93859C15.362 4.87686 15.3498 4.81074 15.351 4.74419C15.3522 4.67764 15.367 4.61202 15.3943 4.55126C15.4216 4.49049 15.4609 4.43584 15.5099 4.39055C16.052 3.85018 16.6958 3.42149 17.4045 3.129C18.1132 2.83651 18.8729 2.68595 19.6401 2.68595C20.4074 2.68595 21.1671 2.83651 21.8758 3.129C22.5845 3.42149 23.2283 3.85018 23.7704 4.39055C23.8579 4.48445 23.9055 4.60848 23.9032 4.73658C23.9008 4.86467 23.8486 4.98686 23.7575 5.07745C23.6665 5.16805 23.5438 5.22 23.4151 5.22237C23.2863 5.22475 23.1617 5.17738 23.0674 5.09021H23.0647Z" fill="#59A52C"/>
<path d="M11.5129 17.7417C15.0995 17.7417 18.007 14.8479 18.007 11.2783C18.007 7.70856 15.0995 4.81476 11.5129 4.81476C7.92631 4.81476 5.0188 7.70856 5.0188 11.2783C5.0188 14.8479 7.92631 17.7417 11.5129 17.7417Z" fill="#CAE2BC"/>
</svg>
