<svg width="45" height="25" viewBox="0 0 45 25" fill="none" xmlns="http://www.w3.org/2000/svg">
<path d="M7.22228 19.0932L5.63745 17.5123L16.3717 6.84819H22.3621L23.9363 8.5141L29.1953 13.7395L37.8553 5.10168L39.4436 6.67903L29.1988 16.8933L22.3141 10.0569L21.3922 9.08269H17.2989L7.22228 19.0932Z" fill="#569532"/>
<path d="M19.3182 10.0394C21.4968 10.0394 23.2629 8.2816 23.2629 6.11328C23.2629 3.94495 21.4968 2.18718 19.3182 2.18718C17.1396 2.18718 15.3735 3.94495 15.3735 6.11328C15.3735 8.2816 17.1396 10.0394 19.3182 10.0394Z" fill="#C5DAAC"/>
<path d="M29.1957 19.8611C31.3743 19.8611 33.1404 18.1033 33.1404 15.935C33.1404 13.7667 31.3743 12.0089 29.1957 12.0089C27.0171 12.0089 25.251 13.7667 25.251 15.935C25.251 18.1033 27.0171 19.8611 29.1957 19.8611Z" fill="#C5DAAC"/>
<path d="M41.0328 8.08016C43.2114 8.08016 44.9775 6.32239 44.9775 4.15407C44.9775 1.98574 43.2114 0.227966 41.0328 0.227966C38.8542 0.227966 37.0881 1.98574 37.0881 4.15407C37.0881 6.32239 38.8542 8.08016 41.0328 8.08016Z" fill="#C5DAAC"/>
<path d="M9.3393 20.7632C9.83986 18.6529 8.52679 16.5383 6.40648 16.0401C4.28616 15.5419 2.16153 16.8488 1.66098 18.9591C1.16042 21.0694 2.47349 23.184 4.5938 23.6822C6.71411 24.1804 8.83875 22.8735 9.3393 20.7632Z" fill="#C5DAAC"/>
</svg>
