<svg width="46" height="31" viewBox="0 0 46 31" fill="none" xmlns="http://www.w3.org/2000/svg">
<path d="M4.26622 12.6781L8.2462 10.5029L11.836 9.88296L13.3976 6.77609L17.6913 3.35835C17.6913 3.35835 21.9845 2.3487 22.3751 2.19283C23.688 2.27062 24.9931 2.45247 26.2769 2.73663L29.3966 4.60091L32.2886 6.77609L33.0663 9.10623L34.5506 11.3593V13.6124H38.4541L40.3276 14.9329L41.5729 16.5643L42.587 19.0503L43.0554 22.3131L41.5729 25.187L40.3276 26.7405L38.4541 27.8281L35.098 28.6827H16.9109L10.1997 28.2168L7.31204 27.1293L4.73635 25.187L2.93927 23.0119L1.92603 19.905V17.1081L2.93927 14.9329L4.26622 12.6781Z" fill="#CAE2BC"/>
<path d="M36.3916 11.5577C35.8297 8.72883 34.3985 6.14362 32.2959 4.15963C30.1934 2.17565 27.5234 0.89092 24.6552 0.483127C21.7871 0.0753336 18.8624 0.564625 16.2859 1.88334C13.7093 3.20205 11.6081 5.28503 10.2728 7.84417C7.42553 8.15086 4.80479 9.53254 2.95031 11.7047C1.09583 13.8768 0.148782 16.6739 0.304226 19.5201C0.45967 22.3664 1.70578 25.0449 3.7859 27.0041C5.86601 28.9634 8.62174 30.0542 11.4857 30.0519H35.7385C38.1529 30.058 40.4751 29.1295 42.2142 27.4626C43.9534 25.7957 44.9731 23.521 45.058 21.1194C45.1428 18.7178 44.286 16.3775 42.6687 14.5932C41.0515 12.8089 38.8005 11.7203 36.3916 11.5577ZM35.7385 26.3384H11.4812C9.50197 26.3384 7.60383 25.5558 6.2043 24.1629C4.80477 22.77 4.01851 20.8807 4.01851 18.9108C4.01851 16.9409 4.80477 15.0517 6.2043 13.6588C7.60383 12.2658 9.50197 11.4833 11.4812 11.4833H12.8062C13.4809 9.1114 14.995 7.06248 17.069 5.71485C19.1429 4.36723 21.6367 3.81189 24.0899 4.15134C26.5432 4.49079 28.7902 5.70212 30.4162 7.5617C32.0421 9.42128 32.9373 11.8035 32.9363 14.2687V15.2004H35.7349C37.207 15.2189 38.6125 15.8139 39.647 16.8565C40.6814 17.8991 41.2614 19.3054 41.2614 20.7707C41.2614 22.236 40.6814 23.6423 39.647 24.6849C38.6125 25.7276 37.207 26.3225 35.7349 26.341L35.7385 26.3384Z" fill="#CAE2BC"/>
<path d="M29.8139 18.0011H12.6398C12.1588 18.0011 11.6976 17.8109 11.3575 17.4724C11.0174 17.1339 10.8263 16.6748 10.8263 16.1961C10.8263 15.7174 11.0174 15.2583 11.3575 14.9198C11.6976 14.5813 12.1588 14.3912 12.6398 14.3912H29.8139C30.2948 14.3912 30.7561 14.5813 31.0962 14.9198C31.4363 15.2583 31.6274 15.7174 31.6274 16.1961C31.6275 16.4332 31.5807 16.6679 31.4896 16.887C31.3985 17.106 31.2649 17.305 31.0965 17.4727C30.928 17.6403 30.7281 17.7732 30.508 17.8639C30.2879 17.9546 30.0521 18.0012 29.8139 18.0011Z" fill="#59A52C"/>
<path d="M29.8139 23.7622H12.6398C12.1588 23.7622 11.6976 23.572 11.3575 23.2335C11.0174 22.895 10.8263 22.436 10.8263 21.9573C10.8263 21.4785 11.0174 21.0194 11.3575 20.6809C11.6976 20.3424 12.1588 20.1523 12.6398 20.1523H29.8139C30.0521 20.1522 30.2879 20.1988 30.508 20.2894C30.7281 20.3801 30.928 20.5131 31.0965 20.6807C31.2649 20.8483 31.3985 21.0474 31.4896 21.2664C31.5807 21.4854 31.6275 21.7202 31.6274 21.9573C31.6274 22.436 31.4363 22.895 31.0962 23.2335C30.7561 23.572 30.2948 23.7622 29.8139 23.7622Z" fill="#59A52C"/>
<path d="M14.3329 16.1961C14.3329 16.4589 14.2546 16.7157 14.1079 16.9342C13.9613 17.1526 13.7528 17.3229 13.5089 17.4234C13.265 17.524 12.9967 17.5503 12.7377 17.499C12.4788 17.4478 12.2409 17.3213 12.0543 17.1355C11.8676 16.9497 11.7405 16.713 11.689 16.4553C11.6375 16.1976 11.6639 15.9305 11.765 15.6877C11.866 15.445 12.037 15.2375 12.2565 15.0915C12.476 14.9455 12.7341 14.8676 12.9981 14.8676C13.3521 14.8676 13.6916 15.0076 13.9419 15.2567C14.1923 15.5059 14.3329 15.8438 14.3329 16.1961Z" fill="white"/>
<path d="M14.3329 21.9563C14.3329 22.2191 14.2546 22.4759 14.1079 22.6944C13.9613 22.9129 13.7528 23.0831 13.5089 23.1837C13.265 23.2842 12.9967 23.3106 12.7377 23.2593C12.4788 23.2081 12.2409 23.0815 12.0543 22.8957C11.8676 22.7099 11.7405 22.4732 11.689 22.2155C11.6375 21.9578 11.6639 21.6907 11.765 21.448C11.866 21.2052 12.037 20.9977 12.2565 20.8518C12.476 20.7058 12.7341 20.6279 12.9981 20.6279C13.3521 20.6279 13.6916 20.7678 13.9419 21.017C14.1923 21.2661 14.3329 21.604 14.3329 21.9563Z" fill="white"/>
</svg>
