<svg width="32" height="35" viewBox="0 0 32 35" fill="none" xmlns="http://www.w3.org/2000/svg">
<path fill-rule="evenodd" clip-rule="evenodd" d="M15.9248 18.2215C17.9262 18.2216 19.9081 18.6141 21.7572 19.3765C23.6062 20.139 25.2863 21.2565 26.7014 22.6652C28.1166 24.0739 29.239 25.7462 30.0048 27.5867C30.7705 29.4272 31.1645 31.3998 31.1643 33.3918H0.680786C0.680786 31.3995 1.0751 29.4266 1.8412 27.586C2.6073 25.7453 3.7302 24.0729 5.14575 22.6642C6.56131 21.2554 8.24181 20.138 10.0913 19.3757C11.9408 18.6135 13.923 18.2212 15.9248 18.2215Z" fill="#CAE2BC"/>
<path d="M14.5681 12.2098C14.5697 12.2907 14.5548 12.371 14.5242 12.446C14.4936 12.5209 14.4479 12.5888 14.3901 12.6456C14.3023 12.7336 14.1901 12.7937 14.0679 12.8181C13.9457 12.8425 13.819 12.8302 13.7038 12.7827C13.5887 12.7352 13.4903 12.6547 13.4213 12.5515C13.3522 12.4482 13.3156 12.3268 13.316 12.2028V7.77449C13.3167 7.69188 13.3338 7.61021 13.3663 7.5342C13.3988 7.45819 13.4462 7.38935 13.5056 7.33167C13.5618 7.26972 13.6304 7.2202 13.7071 7.18633C13.7837 7.15246 13.8666 7.13499 13.9505 7.13505C14.0328 7.13408 14.1144 7.15037 14.19 7.18288C14.2656 7.21538 14.3335 7.26336 14.3892 7.32369C14.4474 7.38356 14.493 7.4543 14.5236 7.53182C14.5541 7.60935 14.5689 7.69212 14.5672 7.77538L14.5681 12.2098Z" fill="#59A52C"/>
<path d="M16.8488 10.884V12.1416C16.8506 12.2655 16.8151 12.3871 16.7468 12.4907C16.6785 12.5943 16.5805 12.6752 16.4656 12.7229C16.3506 12.7705 16.224 12.7828 16.102 12.7581C15.9799 12.7335 15.8681 12.673 15.781 12.5844C15.7205 12.5252 15.6727 12.4542 15.6408 12.3759C15.6088 12.2976 15.5932 12.2137 15.595 12.1292V7.78949C15.5929 7.70294 15.6087 7.61687 15.6413 7.5366C15.6739 7.45633 15.7226 7.38355 15.7846 7.32275C15.8444 7.26167 15.9162 7.21343 15.9954 7.18099C16.0747 7.14855 16.1598 7.13259 16.2455 7.13411H17.7191C17.9795 7.124 18.2393 7.1652 18.4836 7.25533C18.728 7.34546 18.952 7.48275 19.1429 7.6593C19.4909 8.02421 19.6874 8.50652 19.6932 9.00959C19.699 9.51267 19.5135 9.99933 19.174 10.3721C18.9908 10.5461 18.774 10.6813 18.5368 10.7696C18.2996 10.8579 18.0468 10.8974 17.7939 10.8857L16.8488 10.884ZM16.8488 8.2518V9.78753H17.6497C17.7484 9.78807 17.8461 9.76846 17.9369 9.72992C18.0276 9.69138 18.1095 9.63472 18.1774 9.56345C18.2493 9.49484 18.3064 9.41231 18.3451 9.32092C18.3839 9.22954 18.4034 9.13123 18.4025 9.03206C18.4068 8.82738 18.3301 8.62921 18.1889 8.4803C18.1216 8.40637 18.0391 8.34776 17.9469 8.30848C17.8548 8.2692 17.7552 8.25017 17.655 8.25269L16.8488 8.2518Z" fill="#59A52C"/>
<path fill-rule="evenodd" clip-rule="evenodd" d="M12.3713 19.6563C13.3003 20.7704 14.24 21.8173 15.0729 22.7507C15.3728 23.0864 15.6575 23.407 15.9254 23.709C16.1923 23.4052 16.4798 23.0846 16.7796 22.7507C17.6143 21.8164 18.554 20.7695 19.483 19.6563C19.7117 19.3817 19.9431 19.1027 20.17 18.8184C22.4934 15.9241 24.5756 12.6773 24.5756 9.83526C24.5756 7.55178 23.6642 5.36183 22.0419 3.74716C20.4196 2.1325 18.2192 1.22539 15.9249 1.22539C13.6307 1.22539 11.4303 2.1325 9.80801 3.74716C8.1857 5.36183 7.27429 7.55178 7.27429 9.83526C7.27429 12.6694 9.3601 15.9179 11.6835 18.8158C11.9107 19.0992 12.1397 19.3791 12.3705 19.6554L12.3713 19.6563ZM15.9263 15.7257C14.7773 15.7257 13.6541 15.3866 12.6988 14.7512C11.7435 14.1159 10.999 13.2128 10.5594 12.1563C10.1198 11.0997 10.0048 9.93718 10.2291 8.81562C10.4534 7.69407 11.0068 6.6639 11.8194 5.8554C12.632 5.04691 13.6672 4.49641 14.7941 4.27353C15.9211 4.05065 17.0891 4.16539 18.1505 4.60326C19.2119 5.04112 20.119 5.78243 20.7571 6.73343C21.3952 7.68444 21.7356 8.80241 21.7352 9.94597C21.7353 10.7052 21.5851 11.4569 21.2932 12.1583C21.0013 12.8597 20.5734 13.497 20.034 14.0338C19.4945 14.5705 18.8541 14.9962 18.1493 15.2865C17.4444 15.5768 16.6891 15.7261 15.9263 15.7257Z" fill="#59A52C"/>
</svg>
