<svg width="29" height="33" viewBox="0 0 29 33" fill="none" xmlns="http://www.w3.org/2000/svg">
<path d="M19.9571 21.5867C21.4643 19.508 22.4081 17.0779 22.6978 14.5307L14.2692 12.1457L5.84058 14.5307C6.1302 17.0779 7.0741 19.508 8.58131 21.5867C10.0505 23.6227 12.0051 25.2634 14.2692 26.3613C16.5334 25.2634 18.4879 23.6227 19.9571 21.5867Z" fill="#59A52C"/>
<path d="M14.2662 10.2008L22.7936 12.6142V8.71733L14.2662 6.30392L5.73877 8.71733V12.6142L14.2662 10.2008Z" fill="#59A52C"/>
<path d="M15.209 0.733978V4.63085L24.677 7.30995V12.801C24.6858 16.3475 23.568 19.806 21.4833 22.6822C19.8578 24.9338 17.7038 26.7557 15.209 27.9891V32.0772C19.107 30.5624 22.4551 27.9122 24.8154 24.473C27.1757 21.0339 28.4384 16.9659 28.4384 12.801V4.47586L15.209 0.733978Z" fill="#CAE2BC"/>
<path d="M13.328 27.9873C10.8332 26.7539 8.67916 24.932 7.05368 22.6805C4.969 19.8042 3.85119 16.3457 3.86002 12.7992V7.30818L13.328 4.63085V0.733978L0.0986328 4.47852V12.7992C0.0985999 16.9641 1.36129 21.0321 3.72159 24.4713C6.0819 27.9104 9.42996 30.5607 13.328 32.0755V27.9873Z" fill="#CAE2BC"/>
</svg>
