<svg width="32" height="31" viewBox="0 0 32 31" fill="none" xmlns="http://www.w3.org/2000/svg">
<path d="M6.66707 5.25285H0.955141C0.718287 5.24548 0.493611 5.14666 0.328686 4.9773C0.16376 4.80795 0.0715332 4.58135 0.0715332 4.3455C0.0715332 4.10965 0.16376 3.88305 0.328686 3.7137C0.493611 3.54434 0.718287 3.44551 0.955141 3.43815H6.66707C6.90393 3.44551 7.1286 3.54434 7.29353 3.7137C7.45845 3.88305 7.55068 4.10965 7.55068 4.3455C7.55068 4.58135 7.45845 4.80795 7.29353 4.9773C7.1286 5.14666 6.90393 5.24548 6.66707 5.25285Z" fill="#CAE2BC"/>
<path d="M30.1282 5.25286H16.5029C16.266 5.24549 16.0413 5.14667 15.8764 4.97731C15.7115 4.80795 15.6193 4.58136 15.6193 4.34551C15.6193 4.10965 15.7115 3.88306 15.8764 3.7137C16.0413 3.54435 16.266 3.44552 16.5029 3.43816H30.1282C30.3651 3.44552 30.5897 3.54435 30.7547 3.7137C30.9196 3.88306 31.0118 4.10965 31.0118 4.34551C31.0118 4.58136 30.9196 4.80795 30.7547 4.97731C30.5897 5.14667 30.3651 5.24549 30.1282 5.25286Z" fill="#CAE2BC"/>
<path d="M15.6011 16.218H0.955141C0.718287 16.2107 0.493611 16.1119 0.328686 15.9425C0.16376 15.7732 0.0715332 15.5466 0.0715332 15.3107C0.0715332 15.0749 0.16376 14.8483 0.328686 14.6789C0.493611 14.5095 0.718287 14.4107 0.955141 14.4034H15.6011C15.838 14.4107 16.0627 14.5095 16.2276 14.6789C16.3925 14.8483 16.4848 15.0749 16.4848 15.3107C16.4848 15.5466 16.3925 15.7732 16.2276 15.9425C16.0627 16.1119 15.838 16.2107 15.6011 16.218Z" fill="#CAE2BC"/>
<path d="M30.1283 16.218H25.4361C25.1992 16.2107 24.9746 16.1119 24.8096 15.9425C24.6447 15.7732 24.5525 15.5466 24.5525 15.3107C24.5525 15.0749 24.6447 14.8483 24.8096 14.6789C24.9746 14.5095 25.1992 14.4107 25.4361 14.4034H30.1283C30.3651 14.4107 30.5898 14.5095 30.7547 14.6789C30.9196 14.8483 31.0119 15.0749 31.0119 15.3107C31.0119 15.5466 30.9196 15.7732 30.7547 15.9425C30.5898 16.1119 30.3651 16.2107 30.1283 16.218Z" fill="#CAE2BC"/>
<path d="M30.1281 27.1817H15.4785C15.3564 27.1855 15.2348 27.1648 15.1208 27.1209C15.0069 27.077 14.903 27.0108 14.8153 26.9262C14.7275 26.8415 14.6578 26.7402 14.6101 26.6283C14.5625 26.5163 14.538 26.3959 14.538 26.2743C14.538 26.1527 14.5625 26.0323 14.6101 25.9204C14.6578 25.8084 14.7275 25.7071 14.8153 25.6225C14.903 25.5378 15.0069 25.4716 15.1208 25.4277C15.2348 25.3838 15.3564 25.3632 15.4785 25.367H30.1245C30.2467 25.3632 30.3683 25.3838 30.4822 25.4277C30.5962 25.4716 30.7001 25.5378 30.7878 25.6225C30.8756 25.7071 30.9453 25.8084 30.9929 25.9204C31.0406 26.0323 31.0651 26.1527 31.0651 26.2743C31.0651 26.3959 31.0406 26.5163 30.9929 26.6283C30.9453 26.7402 30.8756 26.8415 30.7878 26.9262C30.7001 27.0108 30.5962 27.077 30.4822 27.1209C30.3683 27.1648 30.2467 27.1855 30.1245 27.1817H30.1281Z" fill="#CAE2BC"/>
<path d="M5.64909 27.1816H0.955141C0.718287 27.1742 0.493611 27.0754 0.328686 26.9061C0.16376 26.7367 0.0715332 26.5101 0.0715332 26.2743C0.0715332 26.0384 0.16376 25.8118 0.328686 25.6425C0.493611 25.4731 0.718287 25.3743 0.955141 25.3669H5.64909C5.88594 25.3743 6.11062 25.4731 6.27554 25.6425C6.44047 25.8118 6.5327 26.0384 6.5327 26.2743C6.5327 26.5101 6.44047 26.7367 6.27554 26.9061C6.11062 27.0754 5.88594 27.1742 5.64909 27.1816Z" fill="#CAE2BC"/>
<path d="M9.93045 8.50137C9.10435 8.50137 8.29681 8.25751 7.60998 7.80065C6.92316 7.34378 6.38791 6.69444 6.07194 5.93475C5.75597 5.17507 5.67348 4.33918 5.8349 3.53283C5.99632 2.72648 6.3944 1.98589 6.97879 1.40475C7.56318 0.823613 8.30761 0.428037 9.11792 0.268063C9.92823 0.108089 10.768 0.190904 11.531 0.506033C12.294 0.821162 12.946 1.35445 13.4044 2.03842C13.8629 2.7224 14.1072 3.52634 14.1065 4.34854C14.1039 5.44976 13.663 6.50509 12.8803 7.28344C12.0976 8.06179 11.0369 8.49973 9.93045 8.50137ZM9.93045 2.00333C9.46527 2.00333 9.01053 2.14058 8.6237 2.39773C8.23687 2.65488 7.93531 3.02039 7.75713 3.44807C7.57895 3.87574 7.53215 4.34639 7.62264 4.80053C7.71313 5.25468 7.93686 5.67193 8.26554 5.99956C8.59423 6.32718 9.01311 6.55049 9.46927 6.64124C9.92542 6.73199 10.3984 6.68612 10.8283 6.50943C11.2583 6.33274 11.626 6.03315 11.885 5.64854C12.1439 5.26392 12.2825 4.81153 12.2832 4.34854C12.2834 3.7271 12.0358 3.13098 11.5946 2.69122C11.1534 2.25146 10.5548 2.00404 9.93045 2.00333Z" fill="#59A52C"/>
<path d="M22.1718 19.4657C21.3459 19.4657 20.5384 19.2219 19.8517 18.7652C19.165 18.3085 18.6297 17.6594 18.3136 16.8999C17.9975 16.1404 17.9148 15.3047 18.076 14.4985C18.2371 13.6922 18.6349 12.9516 19.2189 12.3703C19.8029 11.7891 20.547 11.3932 21.3571 11.2328C22.1672 11.0724 23.0068 11.1548 23.7699 11.4693C24.533 11.7839 25.1852 12.3167 25.644 13.0002C26.1029 13.6837 26.3478 14.4873 26.3478 15.3093C26.3462 16.4112 25.9057 17.4674 25.1229 18.2465C24.3401 19.0256 23.2789 19.464 22.1718 19.4657ZM22.1718 12.9685C21.7067 12.9687 21.2521 13.1061 20.8654 13.3635C20.4788 13.6208 20.1775 13.9864 19.9996 14.4142C19.8217 14.8419 19.7753 15.3125 19.8661 15.7665C19.957 16.2205 20.181 16.6375 20.51 16.9648C20.8389 17.2921 21.258 17.5149 21.7142 17.6052C22.1704 17.6954 22.6432 17.649 23.0729 17.4718C23.5026 17.2946 23.8699 16.9946 24.1283 16.6097C24.3866 16.2248 24.5245 15.7723 24.5245 15.3093C24.5236 14.6886 24.2754 14.0937 23.8343 13.6549C23.3933 13.2161 22.7954 12.9692 22.1718 12.9685Z" fill="#59A52C"/>
<path d="M8.91161 30.431C8.08571 30.4308 7.2784 30.1869 6.59177 29.7301C5.90513 29.2733 5.37002 28.6241 5.05408 27.8646C4.73814 27.1051 4.65557 26.2694 4.8168 25.4632C4.97804 24.657 5.37583 23.9165 5.9599 23.3353C6.54397 22.7541 7.28807 22.3584 8.09812 22.1981C8.90817 22.0378 9.7478 22.1201 10.5108 22.4347C11.2738 22.7493 11.926 23.2821 12.3848 23.9656C12.8437 24.6491 13.0886 25.4526 13.0886 26.2747C13.0869 27.3766 12.6463 28.433 11.8633 29.2121C11.0803 29.9913 10.0188 30.4296 8.91161 30.431ZM8.91161 23.933C8.44625 23.933 7.99133 24.0703 7.6044 24.3277C7.21747 24.585 6.91591 24.9508 6.73787 25.3787C6.55982 25.8067 6.51328 26.2775 6.60413 26.7318C6.69498 27.1861 6.91915 27.6033 7.24828 27.9308C7.5774 28.2582 7.99671 28.4812 8.45316 28.5714C8.90961 28.6617 9.3827 28.6152 9.81259 28.4378C10.2425 28.2604 10.6099 27.9602 10.8683 27.575C11.1267 27.1898 11.2645 26.7369 11.2644 26.2738C11.2637 25.653 11.0155 25.0579 10.5744 24.619C10.1333 24.1802 9.53531 23.9334 8.91161 23.933Z" fill="#59A52C"/>
<path d="M9.25646 1.39934C10.7309 1.39934 12.734 2.78716 12.734 4.49912C12.734 6.21109 10.7309 7.59891 9.25646 7.59891C8.4912 7.5358 7.78177 7.17498 7.28204 6.5947C6.7823 6.01443 6.53254 5.26147 6.58692 4.49912C6.53254 3.73677 6.7823 2.98382 7.28204 2.40354C7.78177 1.82326 8.4912 1.46245 9.25646 1.39934V1.39934Z" fill="#59A52C"/>
<path d="M22.159 19.1125C23.8791 19.1125 25.2735 17.5264 25.2735 15.5699C25.2735 13.6133 23.8791 12.0273 22.159 12.0273C20.4389 12.0273 19.0446 13.6133 19.0446 15.5699C19.0446 17.5264 20.4389 19.1125 22.159 19.1125Z" fill="#59A52C"/>
<path d="M9.25592 22.655C10.0212 22.7182 10.7306 23.079 11.2303 23.6592C11.7301 24.2395 11.9798 24.9925 11.9255 25.7548C11.9798 26.5172 11.7301 27.2701 11.2303 27.8504C10.7306 28.4307 10.0212 28.7915 9.25592 28.8546C7.78145 28.8546 6.28027 28.5411 6.28027 26.8291C6.28027 25.1172 7.78145 22.655 9.25592 22.655Z" fill="#59A52C"/>
</svg>
