<svg width="29" height="34" viewBox="0 0 29 34" fill="none" xmlns="http://www.w3.org/2000/svg">
<path d="M15.8999 25.2023C20.6321 25.2023 24.4682 21.8934 24.4682 17.8116C24.4682 13.7298 20.6321 10.4208 15.8999 10.4208C11.1677 10.4208 7.33154 13.7298 7.33154 17.8116C7.33154 21.8934 11.1677 25.2023 15.8999 25.2023Z" fill="#59A52C"/>
<path d="M28.525 9.25268C28.485 8.37854 28.485 7.54514 28.485 6.71086C28.4879 6.55363 28.4589 6.39744 28.3998 6.25162C28.3406 6.10579 28.2526 5.97332 28.1409 5.86213C28.0291 5.75094 27.896 5.6633 27.7495 5.60446C27.603 5.54561 27.4461 5.51677 27.2881 5.51966C22.3005 5.51966 18.5098 4.09021 15.357 1.03205C15.1293 0.821651 14.83 0.704727 14.5192 0.704727C14.2085 0.704727 13.9092 0.821651 13.6814 1.03205C10.5287 4.09021 6.74063 5.51966 1.75037 5.51966C1.5924 5.51677 1.43547 5.54561 1.28895 5.60446C1.14243 5.6633 1.00934 5.75094 0.89762 5.86213C0.7859 5.97332 0.697846 6.10579 0.638725 6.25162C0.579603 6.39744 0.550626 6.55363 0.553523 6.71086C0.553523 7.54514 0.553524 8.37854 0.513481 9.25268C0.353309 17.5929 0.11394 29.0311 14.1201 33.8366L14.5188 33.9163L14.9174 33.8366C28.8845 29.0311 28.6852 17.6327 28.525 9.25268ZM13.5613 20.8087C13.3292 21.0112 13.0317 21.1241 12.7231 21.1266H12.683C12.523 21.1238 12.3654 21.0869 12.2208 21.0185C12.0762 20.95 11.948 20.8516 11.8448 20.7299L8.13414 16.639L9.93074 15.0519L12.8441 18.2686L19.3088 12.1523L20.9435 13.9006L13.5613 20.8087Z" fill="#CAE2BC"/>
</svg>
