<svg width="38" height="37" viewBox="0 0 38 37" fill="none" xmlns="http://www.w3.org/2000/svg">
<path d="M33.2886 16.715C33.1806 15.3655 32.8788 14.0383 32.3924 12.774L35.7412 10.1L30.2945 3.333L26.9588 5.988C25.8129 5.21912 24.5606 4.6205 23.2412 4.211V0H14.5342V4.241C13.1545 4.68045 11.8503 5.32726 10.667 6.159L7.3001 3.559L1.95289 10.4L5.37904 13.05C4.92172 14.3176 4.64803 15.6436 4.56621 16.988L0.333252 18L2.36081 26.435L5.33885 25.726L9.87122 21.21C9.11388 19.1667 9.07603 16.9281 9.76384 14.8606C10.4517 12.7931 11.8244 11.0193 13.6573 9.82968C15.4901 8.64002 17.6745 8.10499 19.8528 8.3122C22.0311 8.51941 24.0741 9.45657 25.6474 10.9702C27.2206 12.4839 28.2309 14.4844 28.5128 16.6441C28.7947 18.8038 28.3315 20.9948 27.199 22.8583C26.0665 24.7218 24.3319 26.1474 22.2791 26.9016C20.2263 27.6559 17.9771 27.6941 15.8996 27.01L9.44119 33.44L15.1873 36.14L17.0963 32.104C18.4025 32.2717 19.7256 32.2606 21.0288 32.071L22.987 36.053L30.8149 32.241L28.8678 28.266C29.8332 27.3522 30.6658 26.3088 31.3414 25.166L35.6296 26.122L37.5326 17.658L33.2886 16.715Z" fill="#CAE2BC"/>
<path d="M25.1291 15.396L24.5172 13.865L20.8379 17.526L19.1851 15.881L22.8644 12.22L21.3262 11.611C20.0153 11.0969 18.5766 10.9999 17.208 11.3333C15.8395 11.6667 14.6084 12.4142 13.6844 13.4727C12.7603 14.5313 12.1886 15.8489 12.048 17.2442C11.9075 18.6395 12.2049 20.0439 12.8995 21.264L1.95386 32.159L4.80128 34.993L15.8494 23.998C17.0838 24.5876 18.4681 24.7931 19.8216 24.5878C21.1752 24.3825 22.4351 23.7759 23.437 22.8471C24.439 21.9184 25.1364 20.7106 25.4382 19.3814C25.7401 18.0522 25.6323 16.6633 25.1291 15.396Z" fill="#59A52C"/>
</svg>
