<svg width="31" height="31" viewBox="0 0 31 31" fill="none" xmlns="http://www.w3.org/2000/svg">
<path d="M21.868 16.6121L19.8818 18.5933L6.12923 4.90997L7.18637 3.85781L2.80476 0.343544L0.305176 2.83134L3.83609 7.1923L4.89323 6.14014L18.6414 19.8235L16.6508 21.8047L19.4894 24.6299L24.7066 19.4373L21.868 16.6121Z" fill="#59A52C"/>
<path d="M25.9437 20.6711L20.7266 25.8636L23.8571 28.9794C24.5514 29.6559 25.4859 30.0326 26.4575 30.0274C27.4292 30.0223 28.3596 29.6358 29.0467 28.952C29.7338 28.2681 30.1221 27.3421 30.1272 26.375C30.1324 25.4079 29.754 24.4779 29.0742 23.7868L25.9437 20.6711Z" fill="#59A52C"/>
<path d="M15.4125 19.0724L11.337 15.0161L8.35332 17.9848C7.02953 17.5743 5.6057 17.6171 4.30927 18.1066C3.01284 18.596 1.91861 19.5038 1.20138 20.6848C0.484146 21.8659 0.185287 23.2521 0.352543 24.622C0.519799 25.992 1.14352 27.2666 2.12407 28.2423C3.10462 29.218 4.38543 29.8385 5.76191 30.0047C7.13838 30.1709 8.53109 29.8731 9.71758 29.159C10.9041 28.4449 11.8159 27.3556 12.3073 26.0652C12.7988 24.7748 12.8416 23.3577 12.4288 22.0402L15.4125 19.0724ZM7.9262 25.2923C7.64547 25.5718 7.28777 25.7621 6.89833 25.8393C6.5089 25.9164 6.10523 25.8769 5.73838 25.7257C5.37152 25.5745 5.05796 25.3184 4.83734 24.9898C4.61673 24.6612 4.49898 24.2749 4.49898 23.8797C4.49898 23.4845 4.61673 23.0982 4.83734 22.7696C5.05796 22.441 5.37152 22.1849 5.73838 22.0337C6.10523 21.8825 6.5089 21.8429 6.89833 21.9201C7.28777 21.9972 7.64547 22.1876 7.9262 22.4671C8.30261 22.8415 8.51417 23.3494 8.51434 23.8791C8.51451 24.4087 8.30327 24.9168 7.92709 25.2914L7.9262 25.2923Z" fill="#CAE2BC"/>
<path d="M29.7482 4.06327L29.2605 2.82336L26.1318 5.94174L24.8682 5.60431L24.5292 4.34668L27.6588 1.22918L26.413 0.743845C25.392 0.345265 24.2795 0.238194 23.2007 0.434682C22.1219 0.631171 21.1195 1.12342 20.3065 1.85604C19.4935 2.58865 18.902 3.53256 18.5987 4.58154C18.2953 5.63053 18.2922 6.74295 18.5895 7.79364L15.047 11.3256L19.1225 15.3819L22.665 11.857C23.7206 12.1529 24.8383 12.1498 25.8923 11.8479C26.9463 11.5459 27.8946 10.9573 28.6307 10.1481C29.3668 9.33888 29.8614 8.34129 30.0588 7.26755C30.2562 6.19382 30.1486 5.08655 29.7482 4.07036V4.06327Z" fill="#CAE2BC"/>
</svg>
