<svg width="29" height="29" viewBox="0 0 29 29" fill="none" xmlns="http://www.w3.org/2000/svg">
<path d="M14.4363 10C11.9901 10 10 11.9901 10 14.4363C10 16.8824 11.9901 18.8725 14.4363 18.8725C16.8824 18.8725 18.8725 16.8824 18.8725 14.4363C18.8725 11.9901 16.8824 10 14.4363 10ZM14.4363 0C22.4092 0 28.8725 6.46334 28.8725 14.4363C28.8725 22.4092 22.4092 28.8725 14.4363 28.8725C6.46334 28.8725 0 22.4092 0 14.4363C0 6.46334 6.46334 0 14.4363 0Z" fill="#CAE2BC"/>
<path d="M17 3.5C17 2.11929 15.8807 1 14.5 1C13.1193 1 12 2.11929 12 3.5V6.5C12 7.88071 13.1193 9 14.5 9C15.8807 9 17 7.88071 17 6.5V3.5Z" fill="#59A52C"/>
<path d="M17 22.5C17 21.1193 15.8807 20 14.5 20C13.1193 20 12 21.1193 12 22.5V25.5C12 26.8807 13.1193 28 14.5 28C15.8807 28 17 26.8807 17 25.5V22.5Z" fill="#59A52C"/>
<path d="M25 17C26.3807 17 27.5 15.8807 27.5 14.5C27.5 13.1193 26.3807 12 25 12H22C20.6193 12 19.5 13.1193 19.5 14.5C19.5 15.8807 20.6193 17 22 17H25Z" fill="#59A52C"/>
<path d="M7 17C8.38071 17 9.5 15.8807 9.5 14.5C9.5 13.1193 8.38071 12 7 12H4C2.61929 12 1.5 13.1193 1.5 14.5C1.5 15.8807 2.61929 17 4 17H7Z" fill="#59A52C"/>
</svg>
