<svg width="23" height="30" viewBox="0 0 23 30" fill="none" xmlns="http://www.w3.org/2000/svg">
<path d="M0.884033 23.445V21.4L2.323 18.8V13.741L2.48999 11.203L3.75806 8.58699L6.08203 5.75899L8.92603 4.37799L12.7122 4.16699L15.4551 4.94799L16.9299 5.98499L18.5171 7.60999L19.717 9.57299L20.5042 11.623V18.442L21.4951 20.603L22.0801 21.952L22.21 23.268L21.4951 24.292L20.2271 25.392L18.5051 25.636H4.29102L2.81201 25.509L1.98804 24.791L1.18799 23.991L0.884033 23.445Z" fill="#59A52C"/>
<path d="M16.1639 26.521C15.8206 27.4903 15.1853 28.3294 14.3456 28.9228C13.5058 29.5163 12.5027 29.8349 11.4744 29.8349C10.4461 29.8349 9.44308 29.5163 8.6033 28.9228C7.76352 28.3294 7.12827 27.4903 6.78493 26.521H4.14293C3.45248 26.521 2.77298 26.3485 2.16614 26.0192C1.5593 25.6899 1.04437 25.2141 0.66812 24.6352C0.291874 24.0563 0.0662413 23.3925 0.0117204 22.7042C-0.0428005 22.0159 0.0755189 21.3249 0.355929 20.694L1.52793 18.057V13.257C1.52809 11.2001 2.16569 9.19386 3.35299 7.51426C4.54029 5.83467 6.21894 4.56431 8.15793 3.878V3.315C8.15793 2.43581 8.50719 1.59262 9.12887 0.970941C9.75055 0.349258 10.5937 0 11.4729 0C12.3521 0 13.1953 0.349258 13.817 0.970941C14.4387 1.59262 14.7879 2.43581 14.7879 3.315V3.881C16.7277 4.56652 18.4073 5.83656 19.5954 7.51624C20.7835 9.19592 21.4216 11.2026 21.4219 13.26V18.06L22.5939 20.697C22.8743 21.3279 22.9927 22.0189 22.9381 22.7072C22.8836 23.3955 22.658 24.0593 22.2817 24.6382C21.9055 25.2171 21.3906 25.6929 20.7837 26.0222C20.1769 26.3515 19.4974 26.524 18.8069 26.524L16.1639 26.521ZM14.3469 26.521H8.60193C8.89327 27.0249 9.31207 27.4434 9.81627 27.7343C10.3205 28.0252 10.8923 28.1783 11.4744 28.1783C12.0565 28.1783 12.6284 28.0252 13.1326 27.7343C13.6368 27.4434 14.0556 27.0249 14.3469 26.521ZM13.1319 3.453V3.315C13.1213 2.88245 12.942 2.47119 12.6323 2.16902C12.3226 1.86685 11.9071 1.69772 11.4744 1.69772C11.0417 1.69772 10.6262 1.86685 10.3165 2.16902C10.0068 2.47119 9.82755 2.88245 9.81693 3.315V3.453C10.9143 3.26967 12.0345 3.26967 13.1319 3.453ZM11.4739 4.973C9.27599 4.973 7.16805 5.84606 5.61378 7.40015C4.05951 8.95423 3.18619 11.0621 3.18593 13.26V18.233L3.11493 18.57L1.87193 21.37C1.70274 21.7487 1.63101 22.1637 1.66325 22.5773C1.6955 22.9908 1.8307 23.3897 2.05654 23.7376C2.28238 24.0855 2.59169 24.3714 2.95628 24.5692C3.32086 24.7669 3.72915 24.8704 4.14393 24.87H18.8049C19.2197 24.8704 19.628 24.7669 19.9926 24.5692C20.3572 24.3714 20.6665 24.0855 20.8923 23.7376C21.1182 23.3897 21.2534 22.9908 21.2856 22.5773C21.3179 22.1637 21.2461 21.7487 21.0769 21.37L19.8339 18.57L19.7629 18.233V13.26C19.7628 12.1716 19.5483 11.0939 19.1317 10.0884C18.715 9.0829 18.1044 8.16931 17.3347 7.39979C16.565 6.63027 15.6513 6.01989 14.6457 5.6035C13.6401 5.18711 12.5623 4.97287 11.4739 4.973Z" fill="#59A52C"/>
</svg>
