<svg width="26" height="26" viewBox="0 0 26 26" fill="none" xmlns="http://www.w3.org/2000/svg">
<g opacity="0.6">
<path opacity="0.6" d="M12.9363 0.500004C9.61441 0.500004 6.4914 1.7936 4.1425 4.1425C1.7936 6.4914 0.5 9.61441 0.5 12.9363C0.5 16.2581 1.7936 19.3811 4.1425 21.73C6.4914 24.0789 9.61441 25.3725 12.9363 25.3725C16.2581 25.3725 19.3811 24.0789 21.73 21.73C24.0789 19.3811 25.3725 16.2581 25.3725 12.9363C25.3725 9.61441 24.0789 6.4914 21.73 4.1425C19.3811 1.7936 16.2581 0.500004 12.9363 0.500004ZM12.9363 3.8147e-06C20.0808 3.8147e-06 25.8725 5.79176 25.8725 12.9363C25.8725 20.0808 20.0808 25.8725 12.9363 25.8725C5.79176 25.8725 0 20.0808 0 12.9363C0 5.79176 5.79176 3.8147e-06 12.9363 3.8147e-06Z" fill="#59A52C"/>
</g>
<path d="M13 20C16.866 20 20 16.866 20 13C20 9.13401 16.866 6 13 6C9.13401 6 6 9.13401 6 13C6 16.866 9.13401 20 13 20Z" fill="#59A52C"/>
</svg>
