<svg width="37" height="37" viewBox="0 0 37 37" fill="none" xmlns="http://www.w3.org/2000/svg">
<path d="M33.9411 15.5563L21.2132 2.82843C19.6511 1.26633 17.1184 1.26633 15.5563 2.82843L2.82842 15.5563C1.26632 17.1184 1.26632 19.6511 2.82842 21.2132L15.5563 33.9411C17.1184 35.5032 19.6511 35.5032 21.2132 33.9411L33.9411 21.2132C35.5032 19.6511 35.5032 17.1184 33.9411 15.5563Z" fill="#CAE2BC"/>
<path d="M12.8848 20C13.9893 20 14.8848 19.1046 14.8848 18C14.8848 16.8954 13.9893 16 12.8848 16C11.7802 16 10.8848 16.8954 10.8848 18C10.8848 19.1046 11.7802 20 12.8848 20Z" fill="#59A52C"/>
<path d="M18.8848 20C19.9893 20 20.8848 19.1046 20.8848 18C20.8848 16.8954 19.9893 16 18.8848 16C17.7802 16 16.8848 16.8954 16.8848 18C16.8848 19.1046 17.7802 20 18.8848 20Z" fill="#59A52C"/>
<path d="M24.8848 20C25.9893 20 26.8848 19.1046 26.8848 18C26.8848 16.8954 25.9893 16 24.8848 16C23.7802 16 22.8848 16.8954 22.8848 18C22.8848 19.1046 23.7802 20 24.8848 20Z" fill="#59A52C"/>
</svg>
