<svg width="28" height="31" viewBox="0 0 28 31" fill="none" xmlns="http://www.w3.org/2000/svg">
<path d="M6.86102 7.75801C6.86102 7.75801 -1.54596 14.542 0.251035 23.18C0.251035 23.18 0.0191031 29.789 9.2951 30.601C18.5711 31.413 22.6301 29.557 22.6301 29.557C22.6301 29.557 29.8781 27.18 26.5151 16.457C25.3854 13.0214 23.2677 9.99522 20.4271 7.75697L6.86102 7.75801Z" fill="#FFB229" fill-opacity="0.26"/>
<path d="M8.23391 6.12303C8.23391 6.12303 6.10301 2.666 10.865 2.231C10.865 2.231 11.5969 -0.204014 13.7649 0.0129857C14.3742 0.0603822 14.96 0.268435 15.4628 0.615891C15.9655 0.963347 16.3673 1.43782 16.627 1.99101C16.627 1.99101 20.888 1.94799 19.453 6.12199L8.23391 6.12303Z" fill="#FFB229" fill-opacity="0.26"/>
<path d="M22.274 5.862H5.65497C5.10268 5.862 4.65497 6.30971 4.65497 6.862V7.965C4.65497 8.51728 5.10268 8.965 5.65497 8.965H22.274C22.8263 8.965 23.274 8.51728 23.274 7.965V6.862C23.274 6.30971 22.8263 5.862 22.274 5.862Z" fill="#FFB229"/>
<path d="M13.8784 21.3838C14.6021 21.35 15.1014 21.0855 15.3765 20.5904C15.5203 20.3365 15.5923 20.0424 15.5923 19.7081C15.5923 19.1791 15.3976 18.7771 15.0083 18.502C14.784 18.3412 14.4074 18.1889 13.8784 18.045V21.3838ZM11.7266 15.2584C11.7266 15.6773 11.8641 16.0053 12.1392 16.2422C12.4185 16.4792 12.793 16.6443 13.2627 16.7374V13.754C12.7083 13.7751 12.3127 13.9444 12.0757 14.2618C11.8429 14.5792 11.7266 14.9113 11.7266 15.2584ZM10.584 15.3345C10.584 14.6913 10.8188 14.1115 11.2886 13.5953C11.7625 13.079 12.4248 12.8166 13.2754 12.8082V11.9639H13.8784V12.7955C14.7205 12.8547 15.3659 13.1044 15.8145 13.5445C16.2673 13.9804 16.5042 14.558 16.5254 15.2774H15.4146C15.3849 14.9558 15.2982 14.6786 15.1543 14.4459C14.8877 14.0184 14.4624 13.7942 13.8784 13.773V16.858C14.8602 17.133 15.5267 17.3912 15.8779 17.6324C16.4492 18.0302 16.7349 18.6184 16.7349 19.397C16.7349 20.5227 16.3688 21.3225 15.6367 21.7964C15.2305 22.0588 14.6444 22.2323 13.8784 22.3169V23.5484H13.2754V22.3169C12.0439 22.2365 11.2082 21.8007 10.7681 21.0093C10.5269 20.5819 10.4062 20.0043 10.4062 19.2764H11.5298C11.5636 19.8562 11.6546 20.2794 11.8027 20.546C12.0651 21.0241 12.5518 21.2929 13.2627 21.3521V17.8926C12.3486 17.7191 11.6737 17.4293 11.2378 17.023C10.8019 16.6168 10.584 16.0539 10.584 15.3345Z" fill="#FFB229"/>
</svg>
