<svg width="34" height="34" viewBox="0 0 34 34" fill="none" xmlns="http://www.w3.org/2000/svg">
<path d="M3.4571 22.086C3.07094 20.8095 2.87649 19.4827 2.8801 18.149C2.89538 15.3322 3.81958 12.5956 5.51522 10.3463C7.21086 8.09693 9.58733 6.4551 12.2911 5.665V7.3L19.4911 3.651L12.2911 0V2.593C8.81123 3.46298 5.71766 5.46138 3.4939 8.27586C1.27015 11.0903 0.0415376 14.5623 0.00010217 18.149C-0.00359127 19.1802 0.0928614 20.2094 0.288102 21.222L0.480102 19.686L3.4571 22.086Z" fill="#CAE2BC"/>
<path d="M26.9791 20.453L26.4991 28.519L33.2211 24.102L31.0131 22.756C31.4841 21.266 31.7107 19.7095 31.6841 18.147C31.6611 14.8584 30.6262 11.6567 28.7201 8.97681C26.814 6.29691 24.129 4.26878 21.0301 3.168L22.2791 3.936L18.6291 5.473C21.5094 6.12273 24.0842 7.72995 25.933 10.0321C27.7819 12.3343 28.7954 15.1954 28.8081 18.148C28.7809 19.1824 28.6523 20.2117 28.4241 21.221L26.9791 20.453Z" fill="#CAE2BC"/>
<path d="M25.4461 26.887C24.2831 28.1679 22.8741 29.2017 21.3031 29.9266C19.7322 30.6516 18.0314 31.053 16.302 31.1068C14.5727 31.1606 12.8502 30.8659 11.2372 30.24C9.62417 29.6142 8.15362 28.6701 6.91313 27.464L8.35313 26.695L1.63013 22.278L2.11013 30.344L4.31913 28.999C5.79662 30.5745 7.58145 31.8304 9.56337 32.689C11.5453 33.5476 13.6822 33.9907 15.8421 33.991C19.6196 33.9965 23.2709 32.6322 26.1191 30.151L24.6791 30.727L25.4461 26.887Z" fill="#CAE2BC"/>
<path d="M15.9431 11.146C15.3228 11.146 14.7165 11.3299 14.2008 11.6745C13.6851 12.0191 13.2831 12.5089 13.0458 13.0819C12.8084 13.6549 12.7463 14.2855 12.8673 14.8938C12.9883 15.5021 13.287 16.0609 13.7256 16.4995C14.1642 16.9381 14.7229 17.2367 15.3313 17.3577C15.9396 17.4787 16.5701 17.4166 17.1432 17.1793C17.7162 16.9419 18.206 16.54 18.5506 16.0243C18.8951 15.5086 19.0791 14.9022 19.0791 14.282C19.0783 13.4505 18.7476 12.6533 18.1597 12.0654C17.5717 11.4774 16.7745 11.1468 15.9431 11.146V11.146Z" fill="#59A52C"/>
<path d="M19.845 19.466C19.4289 19.0385 18.9313 18.6986 18.3818 18.4664C17.8322 18.2342 17.2417 18.1144 16.645 18.114H15.246C14.6494 18.1144 14.0589 18.2342 13.5093 18.4664C12.9597 18.6986 12.4622 19.0385 12.046 19.466C11.1943 20.3227 10.7165 21.4819 10.717 22.69C10.717 22.7357 10.726 22.7809 10.7435 22.8232C10.761 22.8654 10.7867 22.9038 10.819 22.9361C10.8513 22.9684 10.8896 22.994 10.9319 23.0115C10.9741 23.029 11.0193 23.038 11.065 23.038H20.817C20.8627 23.038 20.908 23.029 20.9502 23.0115C20.9924 22.994 21.0308 22.9684 21.0631 22.9361C21.0954 22.9038 21.1211 22.8654 21.1385 22.8232C21.156 22.7809 21.165 22.7357 21.165 22.69C21.168 21.4832 20.6935 20.3242 19.845 19.466Z" fill="#59A52C"/>
</svg>
