<svg width="670" height="160" viewBox="0 0 670 160" fill="none" xmlns="http://www.w3.org/2000/svg">
<path d="M44 83H54V160H44V83Z" fill="#59A52C"/>
<path d="M154 98H164V160H154V98Z" fill="#59A52C"/>
<path d="M198 116H208V160H198V116Z" fill="#59A52C"/>
<path d="M264 102H274V160H264V102Z" fill="#59A52C"/>
<path d="M352 98H362V160H352V98Z" fill="#59A52C"/>
<path d="M418 102H428V160H418V102Z" fill="#59A52C"/>
<path d="M462 129H472V160H462V129Z" fill="#59A52C"/>
<path d="M616 88H626V160H616V88Z" fill="#59A52C"/>
<path d="M0 17H10V160H0V17Z" fill="#59A52C"/>
<path d="M22 57H32V160H22V57Z" fill="#59A52C"/>
<path d="M66 0H76V160H66V0Z" fill="#59A52C"/>
<path d="M88 57H98V160H88V57Z" fill="#59A52C"/>
<path d="M110 27H120V160H110V27Z" fill="#59A52C"/>
<path d="M132 57H142V160H132V57Z" fill="#59A52C"/>
<path d="M176 57H186V160H176V57Z" fill="#59A52C"/>
<path d="M220 23H230V160H220V23Z" fill="#59A52C"/>
<path d="M242 57H252V160H242V57Z" fill="#59A52C"/>
<path d="M286 0H296V160H286V0Z" fill="#59A52C"/>
<path d="M308 57H318V160H308V57Z" fill="#59A52C"/>
<path d="M330 0H340V160H330V0Z" fill="#59A52C"/>
<path d="M374 57H384V160H374V57Z" fill="#59A52C"/>
<path d="M396 23H406V160H396V23Z" fill="#59A52C"/>
<path d="M440 57H450V160H440V57Z" fill="#59A52C"/>
<path d="M484 0H494V160H484V0Z" fill="#59A52C"/>
<path d="M506 57H516V160H506V57Z" fill="#59A52C"/>
<path d="M528 23H538V160H528V23Z" fill="#59A52C"/>
<path d="M550 23H560V160H550V23Z" fill="#59A52C"/>
<path d="M572 57H582V160H572V57Z" fill="#59A52C"/>
<path d="M594 17H604V160H594V17Z" fill="#59A52C"/>
<path d="M638 17H648V160H638V17Z" fill="#59A52C"/>
<path d="M660 35H670V160H660V35Z" fill="#59A52C"/>
</svg>
