<svg width="7" height="7" viewBox="0 0 7 7" fill="none" xmlns="http://www.w3.org/2000/svg">
<path d="M3.5 2.8C1.81429 2.8 0 2.36175 0 1.4C0 0.438249 1.81429 0 3.5 0C5.18571 0 7 0.438249 7 1.4C7 2.36175 5.18525 2.8 3.5 2.8ZM3.5 0.7C1.66267 0.7 0.7 1.22028 0.7 1.4C0.7 1.57972 1.66267 2.1 3.5 2.1C5.33733 2.1 6.3 1.57972 6.3 1.4C6.3 1.22028 5.33733 0.7 3.5 0.7Z" fill="white"/>
<path d="M3.5 7C1.81429 7 0 6.56175 0 5.6V1.4C0 1.30717 0.0368748 1.21815 0.102513 1.15251C0.16815 1.08687 0.257174 1.05 0.35 1.05C0.442826 1.05 0.53185 1.08687 0.597488 1.15251C0.663125 1.21815 0.7 1.30717 0.7 1.4V5.6C0.7 5.77972 1.66267 6.3 3.5 6.3C5.33733 6.3 6.3 5.77972 6.3 5.6V1.4C6.3 1.30717 6.33687 1.21815 6.40251 1.15251C6.46815 1.08687 6.55717 1.05 6.65 1.05C6.74283 1.05 6.83185 1.08687 6.89749 1.15251C6.96313 1.21815 7 1.30717 7 1.4V5.6C6.99954 6.56175 5.18525 7 3.5 7Z" fill="white"/>
<path d="M3.5 4.90139C1.81429 4.90139 0 4.46222 0 3.50001C0 3.40718 0.0368748 3.31816 0.102513 3.25252C0.16815 3.18688 0.257174 3.15001 0.35 3.15001C0.442826 3.15001 0.53185 3.18688 0.597488 3.25252C0.663125 3.31816 0.7 3.40718 0.7 3.50001C0.7 3.67973 1.66267 4.20001 3.5 4.20001C5.33733 4.20001 6.3 3.67973 6.3 3.50001C6.3 3.40718 6.33687 3.31816 6.40251 3.25252C6.46815 3.18688 6.55717 3.15001 6.65 3.15001C6.74283 3.15001 6.83185 3.18688 6.89749 3.25252C6.96313 3.31816 7 3.40718 7 3.50001C6.99954 4.46222 5.18525 4.90139 3.5 4.90139Z" fill="white"/>
</svg>
