<svg aria-hidden="false" aria-label="Interactive chart" viewBox="0 0 648 300" height="300" width="648" xmlns="http://www.w3.org/2000/svg" style="font-family: Roboto; font-size: 12px;" class="highcharts-root" version="1.1" xmlns:xlink="http://www.w3.org/1999/xlink"><desc aria-hidden="true">Created with Highcharts 10.3.1</desc><defs aria-hidden="true"><clipPath id="highcharts-1kcs3ph-1047-"><rect fill="none" height="179" width="600" y="0" x="0"></rect></clipPath><clipPath id="highcharts-1kcs3ph-1057-"><rect fill="none" height="179" width="600" y="0" x="0"></rect></clipPath></defs><rect aria-hidden="true" ry="0" rx="0" height="300" width="648" y="0" x="0" class="highcharts-background" fill="#ffffff"></rect><rect aria-hidden="true" height="179" width="600" y="47" x="38" class="highcharts-plot-background" fill="none"></rect><g aria-hidden="true" data-z-index="0" class="highcharts-pane-group"></g><g aria-hidden="true" data-z-index="1" class="highcharts-grid highcharts-xaxis-grid"><path opacity="1" d="M 104.5 47 L 104.5 226" class="highcharts-grid-line" data-z-index="1" stroke-dasharray="none" fill="none"></path><path opacity="1" d="M 170.5 47 L 170.5 226" class="highcharts-grid-line" data-z-index="1" stroke-dasharray="none" fill="none"></path><path opacity="1" d="M 237.5 47 L 237.5 226" class="highcharts-grid-line" data-z-index="1" stroke-dasharray="none" fill="none"></path><path opacity="1" d="M 304.5 47 L 304.5 226" class="highcharts-grid-line" data-z-index="1" stroke-dasharray="none" fill="none"></path><path opacity="1" d="M 370.5 47 L 370.5 226" class="highcharts-grid-line" data-z-index="1" stroke-dasharray="none" fill="none"></path><path opacity="1" d="M 437.5 47 L 437.5 226" class="highcharts-grid-line" data-z-index="1" stroke-dasharray="none" fill="none"></path><path opacity="1" d="M 504.5 47 L 504.5 226" class="highcharts-grid-line" data-z-index="1" stroke-dasharray="none" fill="none"></path><path opacity="1" d="M 570.5 47 L 570.5 226" class="highcharts-grid-line" data-z-index="1" stroke-dasharray="none" fill="none"></path><path opacity="1" d="M 637.5 47 L 637.5 226" class="highcharts-grid-line" data-z-index="1" stroke-dasharray="none" fill="none"></path><path opacity="1" d="M 37.5 47 L 37.5 226" class="highcharts-grid-line" data-z-index="1" stroke-dasharray="none" fill="none"></path></g><g aria-hidden="true" data-z-index="1" class="highcharts-grid highcharts-yaxis-grid"><path opacity="1" d="M 38 226.5 L 638 226.5" class="highcharts-grid-line" data-z-index="1" stroke-dasharray="none" stroke-width="1" stroke="#e6e6e6" fill="none"></path><path opacity="1" d="M 38 181.5 L 638 181.5" class="highcharts-grid-line" data-z-index="1" stroke-dasharray="none" stroke-width="1" stroke="#e6e6e6" fill="none"></path><path opacity="1" d="M 38 137.5 L 638 137.5" class="highcharts-grid-line" data-z-index="1" stroke-dasharray="none" stroke-width="1" stroke="#e6e6e6" fill="none"></path><path opacity="1" d="M 38 92.5 L 638 92.5" class="highcharts-grid-line" data-z-index="1" stroke-dasharray="none" stroke-width="1" stroke="#e6e6e6" fill="none"></path><path opacity="1" d="M 38 46.5 L 638 46.5" class="highcharts-grid-line" data-z-index="1" stroke-dasharray="none" stroke-width="1" stroke="#e6e6e6" fill="none"></path></g><rect aria-hidden="true" height="179" width="600" y="47" x="38" data-z-index="1" class="highcharts-plot-border" fill="none"></rect><g aria-hidden="true" data-z-index="2" class="highcharts-axis highcharts-xaxis"><path d="M 38 226.5 L 638 226.5" data-z-index="7" stroke-width="1" stroke="#ccd6eb" class="highcharts-axis-line" fill="none"></path></g><g aria-hidden="true" data-z-index="2" class="highcharts-axis highcharts-yaxis"><path d="M 38 47 L 38 226" data-z-index="7" class="highcharts-axis-line" fill="none"></path></g><g aria-hidden="false" data-z-index="3" class="highcharts-series-group"><g aria-hidden="true" clip-path="url(#highcharts-1kcs3ph-1057-)" transform="translate(38,47) scale(1 1)" opacity="1" data-z-index="0.1" class="highcharts-series highcharts-series-0 highcharts-line-series"><path stroke-linecap="round" stroke-linejoin="round" stroke-width="2" stroke="#94d13d" data-z-index="1" class="highcharts-graph" d="M 33.333333333333 44.75 L 100 89.5 L 166.66666666666 134.25 L 233.33333333333 138.725 L 300 156.625 L 366.66666666666 156.625 L 433.33333333333 49.224999999999994 L 500 120.825 L 566.66666666666 93.975" fill="none"></path></g><g aria-hidden="false" clip-path="none" transform="translate(38,47) scale(1 1)" opacity="1" data-z-index="0.1" class="highcharts-markers highcharts-series-0 highcharts-line-series"><path style="outline: none;" aria-label="jan 5, 30." role="img" tabindex="-1" class="highcharts-point" opacity="1" d="M 33 49 A 4 4 0 1 1 33.00399999933334 48.99999800000017 Z" fill="#94d13d"></path><path style="outline: none;" aria-label="jan 10, 20." role="img" tabindex="-1" class="highcharts-point" opacity="1" d="M 100 94 A 4 4 0 1 1 100.00399999933333 93.99999800000016 Z" fill="#94d13d"></path><path style="outline: none;" aria-label="jan 15, 10." role="img" tabindex="-1" class="highcharts-point" opacity="1" d="M 166 138 A 4 4 0 1 1 166.00399999933333 137.99999800000018 Z" fill="#94d13d"></path><path style="outline: none;" aria-label="jan 20, 9." role="img" tabindex="-1" class="highcharts-point" opacity="1" d="M 233 143 A 4 4 0 1 1 233.00399999933333 142.99999800000018 Z" fill="#94d13d"></path><path style="outline: none;" aria-label="jan 25, 5." role="img" tabindex="-1" class="highcharts-point" opacity="1" d="M 300 161 A 4 4 0 1 1 300.00399999933336 160.99999800000018 Z" fill="#94d13d"></path><path style="outline: none;" aria-label="jan 30, 5." role="img" tabindex="-1" class="highcharts-point" opacity="1" d="M 366 161 A 4 4 0 1 1 366.00399999933336 160.99999800000018 Z" fill="#94d13d"></path><path style="outline: none;" aria-label="Feb 5, 29." role="img" tabindex="-1" class="highcharts-point" opacity="1" d="M 433 53 A 4 4 0 1 1 433.00399999933336 52.99999800000017 Z" fill="#94d13d"></path><path style="outline: none;" aria-label="Feb 10, 13." role="img" tabindex="-1" class="highcharts-point" opacity="1" d="M 500 125 A 4 4 0 1 1 500.00399999933336 124.99999800000016 Z" fill="#94d13d"></path><path style="outline: none;" aria-label="Feb 15, 19." role="img" tabindex="-1" class="highcharts-point" opacity="1" d="M 566 98 A 4 4 0 1 1 566.0039999993334 97.99999800000016 Z" fill="#94d13d"></path></g></g><text aria-hidden="true" y="24" style="color: rgb(51, 51, 51); font-size: 18px; fill: rgb(51, 51, 51);" data-z-index="4" class="highcharts-title" text-anchor="middle" x="324">Chart title</text><text aria-hidden="true" y="46" style="color: rgb(102, 102, 102); fill: rgb(102, 102, 102);" data-z-index="4" class="highcharts-subtitle" text-anchor="middle" x="324"></text><text aria-hidden="true" y="297" style="color: rgb(102, 102, 102); fill: rgb(102, 102, 102);" data-z-index="4" class="highcharts-caption" text-anchor="start" x="10"></text><g aria-hidden="true" transform="translate(306,259)" data-z-index="7" class="highcharts-legend highcharts-no-tooltip"><rect height="26" width="37" y="0" x="0" ry="0" rx="0" class="highcharts-legend-box" fill="none"></rect><g data-z-index="1"><g><g transform="translate(8,3)" data-z-index="1" class="highcharts-legend-item highcharts-line-series highcharts-color-undefined highcharts-series-0"><path stroke-width="2" stroke="#94d13d" class="highcharts-graph" d="M 0 11 L 16 11" fill="none"></path><path opacity="1" class="highcharts-point" d="M 8 15 A 4 4 0 1 1 8.003999999333336 14.999998000000167 Z" fill="#94d13d"></path><text style="color: rgb(51, 51, 51); cursor: pointer; font-size: 12px; font-weight: bold; fill: rgb(51, 51, 51);" y="15" data-z-index="2" text-anchor="start" x="21"></text></g></g></g></g><g aria-hidden="true" data-z-index="7" class="highcharts-axis-labels highcharts-xaxis-labels"><text opacity="1" y="245" transform="translate(0,0)" text-anchor="middle" style="color: rgb(102, 102, 102); cursor: default; font-size: 11px; fill: rgb(102, 102, 102);" x="71.33333333333667">jan 5</text><text opacity="1" y="245" transform="translate(0,0)" text-anchor="middle" style="color: rgb(102, 102, 102); cursor: default; font-size: 11px; fill: rgb(102, 102, 102);" x="137.99999999999665">jan 10</text><text opacity="1" y="245" transform="translate(0,0)" text-anchor="middle" style="color: rgb(102, 102, 102); cursor: default; font-size: 11px; fill: rgb(102, 102, 102);" x="204.66666666666666">jan 15</text><text opacity="1" y="245" transform="translate(0,0)" text-anchor="middle" style="color: rgb(102, 102, 102); cursor: default; font-size: 11px; fill: rgb(102, 102, 102);" x="271.33333333332666">jan 20</text><text opacity="1" y="245" transform="translate(0,0)" text-anchor="middle" style="color: rgb(102, 102, 102); cursor: default; font-size: 11px; fill: rgb(102, 102, 102);" x="337.9999999999967">jan 25</text><text opacity="1" y="245" transform="translate(0,0)" text-anchor="middle" style="color: rgb(102, 102, 102); cursor: default; font-size: 11px; fill: rgb(102, 102, 102);" x="404.6666666666667">jan 30</text><text opacity="1" y="245" transform="translate(0,0)" text-anchor="middle" style="color: rgb(102, 102, 102); cursor: default; font-size: 11px; fill: rgb(102, 102, 102);" x="471.33333333332666">Feb 5</text><text opacity="1" y="245" transform="translate(0,0)" text-anchor="middle" style="color: rgb(102, 102, 102); cursor: default; font-size: 11px; fill: rgb(102, 102, 102);" x="537.9999999999966">Feb 10</text><text opacity="1" y="245" style="color: rgb(102, 102, 102); cursor: default; font-size: 11px; fill: rgb(102, 102, 102);" transform="translate(0,0)" text-anchor="middle" x="604.6666666666666">Feb 15</text></g><g aria-hidden="true" data-z-index="7" class="highcharts-axis-labels highcharts-yaxis-labels"><text opacity="1" y="231" transform="translate(0,0)" text-anchor="end" style="color: rgb(102, 102, 102); cursor: default; font-size: 11px; fill: rgb(102, 102, 102);" x="23">0</text><text opacity="1" y="186" transform="translate(0,0)" text-anchor="end" style="color: rgb(102, 102, 102); cursor: default; font-size: 11px; fill: rgb(102, 102, 102);" x="23">10</text><text opacity="1" y="141" style="color: rgb(102, 102, 102); cursor: default; font-size: 11px; fill: rgb(102, 102, 102);" transform="translate(0,0)" text-anchor="end" x="23">20</text><text opacity="1" y="96" style="color: rgb(102, 102, 102); cursor: default; font-size: 11px; fill: rgb(102, 102, 102);" transform="translate(0,0)" text-anchor="end" x="23">30</text><text opacity="1" y="52" style="color: rgb(102, 102, 102); cursor: default; font-size: 11px; fill: rgb(102, 102, 102);" transform="translate(0,0)" text-anchor="end" x="23">40</text></g><text aria-hidden="false" aria-label="Chart credits: Highcharts.com" style="cursor: pointer; color: rgb(153, 153, 153); font-size: 9px; fill: rgb(153, 153, 153);" y="295" data-z-index="8" text-anchor="end" class="highcharts-credits" x="638">Highcharts.com</text></svg>