<svg width="55" height="29" viewBox="0 0 55 29" fill="none" xmlns="http://www.w3.org/2000/svg">
<path d="M46.7513 0.886963H1.73891C1.19511 0.886963 0.754272 1.3278 0.754272 1.8716V18.5568C0.754272 19.1006 1.19511 19.5415 1.73891 19.5415H46.7513C47.2951 19.5415 47.7359 19.1006 47.7359 18.5568V1.8716C47.7359 1.3278 47.2951 0.886963 46.7513 0.886963Z" fill="#CAE2BC"/>
<path d="M5.80768 14.5896V5.83913H7.57413V9.28537H11.0371V5.83913H12.8035V14.5896H11.0371V10.7633H7.57511V14.5896H5.80768Z" fill="#59A52C"/>
<path d="M18.7377 14.5897V7.31964H16.1412V5.83923H23.0948V7.31964H20.5042V14.5897H18.7377Z" fill="#59A52C"/>
<path d="M28.3416 14.5897V7.31964H25.7455V5.83923H32.6986V7.31964H30.1085V14.5897H28.3416Z" fill="#59A52C"/>
<path d="M35.9803 14.5896V5.8391H38.8156C39.5185 5.81072 40.2225 5.85478 40.9164 5.97057C41.4218 6.10393 41.8665 6.40598 42.1767 6.82669C42.532 7.32173 42.7106 7.92187 42.6838 8.53064C42.699 8.99942 42.5985 9.4647 42.3913 9.88548C42.2164 10.2284 41.9617 10.5243 41.6484 10.748C41.3734 10.9454 41.062 11.0863 40.7322 11.1626C40.1265 11.2599 39.5131 11.3018 38.8998 11.2876H37.7458V14.5896H35.9803ZM37.7458 7.31952V9.80228H38.7127C39.1826 9.8287 39.6537 9.78256 40.1094 9.66543C40.3334 9.58235 40.5262 9.43225 40.6618 9.23562C40.7968 9.03476 40.8666 8.7972 40.8617 8.55525C40.8721 8.26649 40.7717 7.98467 40.5811 7.76752C40.3952 7.56125 40.1447 7.42444 39.8707 7.37959C39.449 7.32808 39.0241 7.30815 38.5995 7.32L37.7458 7.31952Z" fill="#59A52C"/>
<path d="M37.7171 18.3279C37.8728 17.3091 38.23 16.3315 38.7678 15.4523C39.3056 14.5731 40.0132 13.8099 40.8493 13.2073C41.6854 12.6046 42.6333 12.1746 43.6374 11.9424C44.6416 11.7102 45.6819 11.6805 46.6977 11.8549C48.7639 12.2094 50.6084 13.3609 51.8342 15.0616C53.06 16.7623 53.5691 18.8762 53.2521 20.9485C53.0964 21.9673 52.7392 22.9449 52.2014 23.8241C51.6636 24.7033 50.9559 25.4665 50.1198 26.0692C49.2837 26.6718 48.3359 27.1018 47.3318 27.334C46.3276 27.5662 45.2873 27.5959 44.2715 27.4215C42.2053 27.067 40.3608 25.9155 39.135 24.2148C37.9092 22.5141 37.4 20.4002 37.7171 18.3279Z" fill="#59A52C" stroke="white"/>
<path d="M48.7746 18.8566L45.6877 15.7702L42.6014 18.8566" stroke="white" stroke-width="2" stroke-linecap="round" stroke-linejoin="round"/>
<path d="M45.6878 15.7702V23.1777" stroke="white" stroke-width="2" stroke-linecap="round" stroke-linejoin="round"/>
</svg>
