<svg width="49" height="20" viewBox="0 0 49 20" fill="none" xmlns="http://www.w3.org/2000/svg">
<path d="M47.2146 0.384521H1.50012C0.947837 0.384521 0.500122 0.832237 0.500122 1.38452V18.33C0.500122 18.8823 0.947837 19.33 1.50012 19.33H47.2146C47.7669 19.33 48.2146 18.8823 48.2146 18.33V1.38452C48.2146 0.832237 47.7669 0.384521 47.2146 0.384521Z" fill="#CAE2BC"/>
<path d="M5.6322 14.3012V5.41418H7.42621V8.91418H10.9432V5.41418H12.7372V14.3012H10.9432V10.4152H7.4272V14.3012H5.6322Z" fill="#59A52C"/>
<path d="M18.7642 14.301V6.91753H16.1272V5.41402H23.1892V6.91753H20.5582V14.301H18.7642Z" fill="#59A52C"/>
<path d="M28.5177 14.301V6.91753H25.8812V5.41402H32.9427V6.91753H30.3122V14.301H28.5177Z" fill="#59A52C"/>
<path d="M36.2758 14.301V5.41402H39.1553C39.8691 5.38519 40.5841 5.42994 41.2888 5.54753C41.8021 5.68298 42.2537 5.98973 42.5688 6.41701C42.9296 6.91977 43.111 7.52928 43.0838 8.14754C43.0992 8.62363 42.9972 9.09617 42.7867 9.52351C42.6091 9.8718 42.3504 10.1723 42.0323 10.3995C41.753 10.6 41.4367 10.7431 41.1017 10.8205C40.4866 10.9194 39.8637 10.9619 39.2408 10.9475H38.0688V14.301H36.2758ZM38.0688 6.91753V9.43901H39.0507C39.5279 9.46585 40.0064 9.41899 40.4693 9.30003C40.6967 9.21565 40.8926 9.06321 41.0303 8.86351C41.1673 8.65952 41.2382 8.41826 41.2332 8.17253C41.2438 7.87927 41.1418 7.59305 40.9483 7.37251C40.7595 7.16302 40.505 7.02408 40.2268 6.97853C39.7985 6.92622 39.367 6.90598 38.9358 6.91802L38.0688 6.91753Z" fill="#59A52C"/>
</svg>
